<svg xmlns="http://www.w3.org/2000/svg" width="192" height="37" viewBox="0 0 192 37">
  <g fill="none" fill-rule="evenodd" transform="translate(.5 1)">
    <path fill="#231F20" fill-rule="nonzero" d="M12.7543252,5.40475614 C14.234102,6.53421972 15.8000115,7.90686341 17.4441404,9.52268721 C19.0955738,11.1312065 20.7756166,12.925687 22.5058781,14.8918241 C24.2288351,16.8579612 26.2019723,19.2243258 28.4182897,21.9909181 C32.1073838,26.5592955 34.8882807,29.8049434 36.7685895,31.7211662 C38.6418982,33.6440848 40.1213707,34.6021961 41.1939198,34.6021961 C41.4584048,34.6021961 41.7158896,34.5306726 41.9587653,34.39493 C42.2019455,34.2518829 42.3952113,34.0519213 42.537954,33.7944364 C42.674001,33.5369516 42.7452202,33.2797711 42.7452202,33.0292865 C42.7452202,32.6004495 42.5881727,32.2142222 42.273469,31.8712135 C41.9587653,31.5282047 41.5728425,31.3565482 41.1080915,31.3565482 C40.8293018,31.3565482 40.4646838,31.4779861 40.0002372,31.7211662 C39.5424864,31.9643463 39.2420874,32.0857842 39.0993446,32.0857842 C38.5560699,32.0857842 37.8481388,31.6925568 36.9758557,30.8917972 C36.1038769,30.0983422 34.9454996,28.8328317 33.5086369,27.09557 C32.0714698,25.3583083 30.4772552,23.4207807 28.7256889,21.2832914 C26.9741225,19.1454978 25.2511655,17.1008369 23.5638181,15.1420044 C21.9409941,13.2760003 20.3610843,11.5600435 18.8167841,10.0017429 C17.2724838,8.44313795 15.8855354,7.13471329 14.6489387,6.07677327 C13.4120376,5.01152872 12.4539262,4.2393786 11.7676043,3.76032291 C11.088587,3.28126722 10.6594457,3.03839147 10.4950936,3.03839147 C10.4092654,3.03839147 10.3307416,3.0813056 10.2519135,3.17413406 C10.1733898,3.26696251 10.1374758,3.35279078 10.1374758,3.43861906 C10.1374758,3.61727579 10.2093038,3.82454194 10.3590467,4.05341734 C10.5020938,4.28229274 10.7668832,4.67552016 11.1385014,5.22609941 C11.5174241,5.77637431 11.882042,6.34125828 12.2180506,6.91314242 C12.5613637,7.48502657 12.9256774,8.17134841 13.3189048,8.96510778 C13.9626168,10.2662279 14.5488057,11.6531763 15.0704712,13.1329532 C15.592441,14.61273 16.1859344,16.4288198 16.850647,18.5809181 C17.5156639,20.7254076 18.0376338,22.3771454 18.4308612,23.5352184 C18.8240886,24.6862912 19.3317537,25.9158877 19.9605524,27.2313126 C19.0240502,27.2456173 18.2092903,27.460188 17.5226641,27.8747203 C16.8293421,28.2965571 16.1716297,28.9399648 15.5425267,29.8049434 C15.2494322,30.1984752 14.8705095,30.8132735 14.4200633,31.6566428 C13.9626168,32.507621 13.5477802,33.1081146 13.1618573,33.4727326 C12.77563,33.8373506 12.2609648,34.0160073 11.6032523,34.0160073 C10.6381408,34.0160073 9.55859151,33.7728272 8.35760437,33.2940758 C7.15631288,32.8150202 5.99093534,32.1070891 4.86147176,31.1848916 C3.47452336,30.0554281 2.42358353,28.8115268 1.69434754,27.460188 C0.972416095,26.101849 0.607798104,24.7575104 0.607798104,23.4134761 C0.607798104,22.2983173 0.929197602,21.38312 1.57260531,20.6681887 C2.21631737,19.960562 3.0240771,19.6029442 4.00349337,19.6029442 C5.44066044,19.6029442 6.87052298,20.1535234 8.29308099,21.2473774 C9.71563899,22.3412314 10.9169305,23.8998363 11.8963468,25.9085832 C12.2752695,26.6737332 12.5753641,27.4961019 12.8042395,28.3680807 C13.0401151,29.2403638 13.2330765,29.6765054 13.404733,29.6765054 C13.5693894,29.6765054 13.6549133,29.3404968 13.6549133,28.6541749 C13.6549133,27.2955316 13.4333425,25.9874113 12.9828962,24.7149006 C12.5397545,23.4493901 11.917956,22.2983173 11.1241966,21.2832914 C10.3377418,20.2606566 9.40123967,19.4528969 8.32869059,18.8597079 C7.24944569,18.2662145 6.14828718,17.97312 5.01151907,17.97312 C4.03210279,17.97312 3.16712422,18.1873864 2.40197428,18.6238323 C1.63712869,19.0526693 1.05093984,19.6674676 0.629102995,20.4682271 C0.207266154,21.2616821 4.54747351e-13,22.1768794 4.54747351e-13,23.2065143 C4.54747351e-13,24.5505486 0.307399141,25.8799738 0.915197245,27.2097033 C1.52269099,28.5397372 2.38766957,29.7337242 3.52474203,30.7916642 C4.46124417,31.6566428 5.46926987,32.407488 6.56281949,33.0292865 C7.64967328,33.6586938 8.77213668,34.1374452 9.93020968,34.4664536 C11.0812825,34.7951576 12.1821367,34.959814 13.2260763,34.959814 C14.4057586,34.959814 15.3781747,34.659415 16.1500204,34.0589214 C16.9294751,33.4584279 17.579883,32.5432306 18.1161575,31.3136341 C18.3091189,30.8844927 18.5236896,30.3914366 18.7668697,29.8338572 C19.0027453,29.2832779 19.2316207,28.882746 19.4531916,28.618261 C19.6817626,28.3607762 19.9678569,28.1821194 20.3181702,28.089291 C21.2473678,29.5976773 22.1698695,30.8561876 23.0704577,31.8712135 C23.9713503,32.8792392 24.8293286,33.6440848 25.6443929,34.1517499 C26.4594572,34.659415 27.2243027,34.9168998 27.939234,34.9168998 C28.4825087,34.9168998 28.9116501,34.7452433 29.2260494,34.39493 C29.5407531,34.0446167 29.6981049,33.5871703 29.6981049,33.0292865 C29.6981049,32.2930503 29.397706,31.5135957 28.7972124,30.6988358 C28.1967188,29.8767713 27.346045,29.147231 26.2518867,28.5038233 C25.1580327,27.8604156 23.9141314,27.4245784 22.5344875,27.1883984 C22.1555648,25.3296989 21.6622044,23.4350854 21.0401016,21.5118624 C20.4179988,19.5816393 19.7033719,17.7372445 18.8883076,15.9713734 C18.0805479,14.2055022 17.1440458,12.4037172 16.0858014,10.573627 C15.0205568,8.75053709 13.9123982,7.02057994 12.7543252,5.40475614 L12.7543252,5.40475614 Z M22.6632299,27.8747203 C23.9141314,28.0749863 25.0365948,28.4609091 26.0233156,29.0544025 C27.0097321,29.6405914 27.7605773,30.2983038 28.2965475,31.0275398 C28.8258218,31.7640803 29.0903068,32.4287929 29.0903068,33.0292865 C29.0903068,33.3652951 28.9831737,33.6586938 28.7756032,33.9015696 C28.568337,34.1447497 28.3324614,34.2661876 28.0606719,34.2661876 C27.145779,34.2661876 26.1949722,33.7156083 25.2152515,32.6147542 C24.2358353,31.5065955 23.3851614,29.9336858 22.6632299,27.8747203 L22.6632299,27.8747203 Z M33.9660833,22.5128879 C33.9660833,22.9919436 34.1520446,23.4280852 34.5236628,23.835313 C34.8955853,24.2428451 35.2958129,24.4431111 35.7319544,24.4431111 C36.0749632,24.4431111 36.3610574,24.3286734 36.5683236,24.1071025 C36.7755897,23.8855316 36.8830272,23.5851327 36.8830272,23.2065143 C36.8830272,22.7344588 36.7113707,22.2913171 36.3610574,21.8764804 C36.0107441,21.4619481 35.6175167,21.2616821 35.1816795,21.2616821 C34.8167572,21.2616821 34.5236628,21.3761198 34.3020919,21.6119954 C34.080521,21.8551755 33.9660833,22.1552701 33.9660833,22.5128879 Z M28.6757745,13.2546954 C28.1751096,12.7683352 27.4960923,12.0607084 26.6524186,11.1312065 C25.8087449,10.2017045 25.3083843,9.65142962 25.1510325,9.47977307 C25.0009852,9.30111634 24.8579381,9.21528807 24.7291957,9.21528807 C24.6220625,9.21528807 24.5648436,9.25820221 24.5648436,9.34403048 C24.5648436,9.72995336 26.3809334,11.8032236 30.0198088,15.5638412 L33.1081049,15.7711074 L28.8471267,9.08654566 C27.9894527,7.73551121 27.4315689,6.80600926 27.1600837,6.29134396 C26.881294,5.78367884 26.7452471,5.36884218 26.7452471,5.04713833 C26.7452471,4.83987217 26.8240752,4.64660638 26.981427,4.48255872 C27.1314743,4.31090217 27.3028265,4.23237843 27.4817876,4.23237843 C27.8607103,4.23237843 28.2825471,4.36812102 28.7542983,4.6396062 C29.2190493,4.91139574 29.7553238,5.31892787 30.3701221,5.86220259 C30.9776158,6.40547731 31.6925471,7.1134084 32.5149159,7.97838697 C32.8366197,8.32870025 33.1583236,8.67901353 33.4657227,9.02932681 C33.7731219,9.37263991 33.9946927,9.61551566 34.1304353,9.75156261 C34.2734825,9.88000067 34.3952247,9.95152423 34.4880531,9.95152423 C34.6594053,9.95152423 34.7452336,9.88000067 34.7452336,9.73695354 C34.7452336,9.51538268 34.0875212,8.7292322 32.7724007,7.37058887 C31.4423668,6.03385914 30.3987315,5.07574775 29.6408861,4.50386361 C28.8900409,3.93197946 28.1824141,3.64588521 27.5247017,3.64588521 C26.8097704,3.64588521 26.2448865,3.88906533 25.8230496,4.38242573 C25.4012128,4.8684816 25.1939466,5.52619402 25.1939466,6.34825846 C25.1939466,6.93475167 25.3296892,7.53524524 25.5944786,8.15004352 C25.8586592,8.7648418 26.2019723,9.40824951 26.6238092,10.0872668 C27.0383415,10.759284 27.7249677,11.8175283 28.6757745,13.2546954 L28.6757745,13.2546954 Z M38.0697097,13.2546954 C37.7623105,12.9469919 37.3118643,12.4682406 36.7186752,11.8032236 C36.1251818,11.138511 35.6534307,10.6022365 35.2958129,10.1877042 C34.9384994,9.77986768 34.6953193,9.5083825 34.5665769,9.37263991 C34.4308343,9.23659296 34.3163966,9.17237393 34.2162636,9.17237393 C34.080521,9.17237393 34.0089975,9.22959278 34.0089975,9.34403048 C34.0089975,9.55129664 34.3380058,10.0230478 34.9957183,10.7665885 L36.3537529,12.2536699 C38.1841474,14.2484164 39.4280487,15.6779746 40.0860654,16.5432575 L48.5434984,29.6765054 L51.3316999,30.0554281 L38.1126238,9.1081549 C37.26195,7.7568161 36.697066,6.82731415 36.4255808,6.31264885 C36.1537913,5.80498374 36.0180487,5.39045143 36.0180487,5.06874757 C36.0180487,4.832872 36.0895722,4.6396062 36.2326194,4.48255872 C36.3680576,4.33220706 36.5540189,4.25368332 36.797199,4.25368332 C37.226036,4.25368332 37.690787,4.39673044 38.1771472,4.68252034 C38.6632031,4.96861459 39.1708682,5.34753729 39.6925337,5.81928845 C40.221808,6.29134396 40.9723489,7.01327541 41.944765,7.9856915 C42.2521641,8.29309065 42.5808682,8.63609939 42.9241813,9.02232663 C43.2674944,9.40124933 43.4887609,9.65142962 43.5891982,9.7728675 C43.6963314,9.8873052 43.8034645,9.95152423 43.9179022,9.95152423 C44.0822543,9.95152423 44.1680825,9.88000067 44.1680825,9.73695354 C44.1680825,9.51538268 43.5103701,8.7292322 42.2019455,7.37058887 C40.8722159,6.03385914 39.8282762,5.07574775 39.0777354,4.50386361 C38.3271945,3.93197946 37.6195678,3.64588521 36.961551,3.64588521 C36.2466197,3.64588521 35.6820401,3.88906533 35.2672034,4.38242573 C34.8453666,4.8684816 34.6381005,5.52619402 34.6381005,6.34825846 C34.6381005,7.12771311 34.873976,7.96408226 35.3530317,8.85067008 C35.8250872,9.73695354 36.7329799,11.20273 38.0697097,13.2546954 L38.0697097,13.2546954 Z M47.5138635,13.2546954 C47.2064643,12.9469919 46.7560181,12.4682406 46.162829,11.8032236 C45.5693357,11.138511 45.0975845,10.6022365 44.7399667,10.1877042 C44.3826532,9.77986768 44.1394731,9.5083825 44.0107307,9.37263991 C43.8749881,9.23659296 43.7605504,9.17237393 43.6604174,9.17237393 C43.5246748,9.17237393 43.4531513,9.22959278 43.4531513,9.34403048 C43.4531513,9.55129664 43.7821597,10.0230478 44.4398721,10.7665885 L45.7982111,12.2536699 C47.6283012,14.2484164 48.8722025,15.6779746 49.5302192,16.5432575 L57.9876522,29.6765054 L60.7758538,30.0554281 L47.5567776,9.1081549 C46.7061038,7.7568161 46.1412198,6.82731415 45.8697346,6.31264885 C45.5979451,5.80498374 45.4622025,5.39045143 45.4622025,5.06874757 C45.4622025,4.832872 45.5334217,4.6396062 45.6767732,4.48255872 C45.8125158,4.33220706 45.998477,4.25368332 46.2413528,4.25368332 C46.6704942,4.25368332 47.1349408,4.39673044 47.6209967,4.68252034 C48.1073569,4.96861459 48.615022,5.34753729 49.1366875,5.81928845 C49.6659618,6.29134396 50.4165027,7.01327541 51.3889188,7.9856915 C51.6963179,8.29309065 52.025022,8.63609939 52.3683351,9.02232663 C52.7113438,9.40124933 52.933219,9.65142962 53.0330477,9.7728675 C53.1404852,9.8873052 53.2476184,9.95152423 53.3620561,9.95152423 C53.5264081,9.95152423 53.6122363,9.88000067 53.6122363,9.73695354 C53.6122363,9.51538268 52.9545239,8.7292322 51.6460993,7.37058887 C50.3163697,6.03385914 49.2727344,5.07574775 48.5218892,4.50386361 C47.7713483,3.93197946 47.0634172,3.64588521 46.4057048,3.64588521 C45.6907735,3.64588521 45.1261939,3.88906533 44.7113573,4.38242573 C44.2895204,4.8684816 44.0822543,5.52619402 44.0822543,6.34825846 C44.0822543,7.12771311 44.3181298,7.96408226 44.7971855,8.85067008 C45.269241,9.73695354 46.1768294,11.20273 47.5138635,13.2546954 L47.5138635,13.2546954 Z M64.6865187,13.02582 L66.4450852,15.5994508 L69.2762009,15.7711074 L64.5647764,8.35730967 C63.9213687,7.30636984 63.4925317,6.57713386 63.2852656,6.16960173 C63.0779994,5.75506942 62.9708662,5.36884218 62.9708662,5.00422419 C62.9708662,4.56108246 63.1851326,4.33220706 63.6212741,4.33220706 C64.3575103,4.33220706 65.9018105,5.54780327 68.2468703,7.97838697 C68.6400977,8.37161439 68.9118873,8.6504041 69.0759349,8.82906083 C69.2335911,9.00071738 69.3906386,9.17237393 69.5336857,9.34403048 C69.683733,9.5083825 69.8124754,9.65142962 69.9339133,9.7728675 C70.0556556,9.8873052 70.148484,9.95152423 70.2200076,9.95152423 C70.3843596,9.95152423 70.4701879,9.89430538 70.4701879,9.77986768 C70.4701879,9.45816383 69.8124754,8.65770864 68.4970506,7.37058887 C67.1600165,6.00524971 66.1090767,5.04013815 65.3585358,4.48255872 C64.6079949,3.92467493 63.8644542,3.64588521 63.1349139,3.64588521 C61.9625362,3.64588521 61.3763473,4.36081648 61.3763473,5.78367884 C61.3763473,6.1053827 61.4478709,6.64865742 61.590918,7.413503 C59.5891713,4.90439556 57.7873863,3.64588521 56.1858672,3.64588521 C55.4283261,3.64588521 54.8278326,4.03211245 54.3843865,4.81126275 C53.9339402,5.58341287 53.7123693,6.6556576 53.7123693,8.02130111 C53.7123693,8.67901353 53.8125023,9.35103066 54.0054638,10.0303523 C53.6265411,9.45816383 53.3261421,9.17237393 53.1045712,9.17237393 C52.9402192,9.17237393 52.8543909,9.22959278 52.8543909,9.34403048 C52.8543909,9.60851549 53.5264081,10.409275 54.8634422,11.7460048 C56.2573907,13.1475622 57.6300344,14.1981977 58.9670685,14.8988243 C60.3111028,15.6067554 61.5193945,15.9570686 62.5916392,15.9570686 C63.2922657,15.9570686 63.842845,15.7781076 64.2503771,15.4207941 C64.6509091,15.0631763 64.8578709,14.5844249 64.8578709,13.9693223 C64.8578709,13.6835324 64.800652,13.3761333 64.6865187,13.02582 L64.6865187,13.02582 Z M55.51385,5.74076471 C55.51385,4.86148142 55.8571631,4.41803533 56.543485,4.41803533 C57.0012358,4.41803533 57.5871203,4.66121545 58.3023559,5.14027114 C59.0099827,5.62632701 59.7535233,6.28403943 60.5183689,7.12040858 C61.7050514,8.42883324 62.6132484,9.69434376 63.2350469,10.9096356 C63.8571497,12.1249275 64.1645488,13.1402577 64.1645488,13.9693223 C64.1645488,14.3555495 64.0288063,14.6772534 63.7643213,14.9274337 C63.4995319,15.177614 63.1638277,15.3063564 62.7632957,15.3063564 C62.0912786,15.3063564 61.3261287,15.0062618 60.4757592,14.3984637 C59.6247809,13.7909699 58.8097167,12.9329915 58.0305664,11.831833 C57.2011974,10.67376 56.5790946,9.55129664 56.1502576,8.45744266 C55.7284207,7.37058887 55.51385,6.46269616 55.51385,5.74076471 L55.51385,5.74076471 Z" transform="matrix(1 0 0 -1 0 37.998)"/>
    <path stroke="#231F20" stroke-width=".667" d="M12.7543252,5.40475614 C14.234102,6.53421972 15.8000115,7.90686341 17.4441404,9.52268721 C19.0955738,11.1312065 20.7756166,12.925687 22.5058781,14.8918241 C24.2288351,16.8579612 26.2019723,19.2243258 28.4182897,21.9909181 C32.1073838,26.5592955 34.8882807,29.8049434 36.7685895,31.7211662 C38.6418982,33.6440848 40.1213707,34.6021961 41.1939198,34.6021961 C41.4584048,34.6021961 41.7158896,34.5306726 41.9587653,34.39493 C42.2019455,34.2518829 42.3952113,34.0519213 42.537954,33.7944364 C42.674001,33.5369516 42.7452202,33.2797711 42.7452202,33.0292865 C42.7452202,32.6004495 42.5881727,32.2142222 42.273469,31.8712135 C41.9587653,31.5282047 41.5728425,31.3565482 41.1080915,31.3565482 C40.8293018,31.3565482 40.4646838,31.4779861 40.0002372,31.7211662 C39.5424864,31.9643463 39.2420874,32.0857842 39.0993446,32.0857842 C38.5560699,32.0857842 37.8481388,31.6925568 36.9758557,30.8917972 C36.1038769,30.0983422 34.9454996,28.8328317 33.5086369,27.09557 C32.0714698,25.3583083 30.4772552,23.4207807 28.7256889,21.2832914 C26.9741225,19.1454978 25.2511655,17.1008369 23.5638181,15.1420044 C21.9409941,13.2760003 20.3610843,11.5600435 18.8167841,10.0017429 C17.2724838,8.44313795 15.8855354,7.13471329 14.6489387,6.07677327 C13.4120376,5.01152872 12.4539262,4.2393786 11.7676043,3.76032291 C11.088587,3.28126722 10.6594457,3.03839147 10.4950936,3.03839147 C10.4092654,3.03839147 10.3307416,3.0813056 10.2519135,3.17413406 C10.1733898,3.26696251 10.1374758,3.35279078 10.1374758,3.43861906 C10.1374758,3.61727579 10.2093038,3.82454194 10.3590467,4.05341734 C10.5020938,4.28229274 10.7668832,4.67552016 11.1385014,5.22609941 C11.5174241,5.77637431 11.882042,6.34125828 12.2180506,6.91314242 C12.5613637,7.48502657 12.9256774,8.17134841 13.3189048,8.96510778 C13.9626168,10.2662279 14.5488057,11.6531763 15.0704712,13.1329532 C15.592441,14.61273 16.1859344,16.4288198 16.850647,18.5809181 C17.5156639,20.7254076 18.0376338,22.3771454 18.4308612,23.5352184 C18.8240886,24.6862912 19.3317537,25.9158877 19.9605524,27.2313126 C19.0240502,27.2456173 18.2092903,27.460188 17.5226641,27.8747203 C16.8293421,28.2965571 16.1716297,28.9399648 15.5425267,29.8049434 C15.2494322,30.1984752 14.8705095,30.8132735 14.4200633,31.6566428 C13.9626168,32.507621 13.5477802,33.1081146 13.1618573,33.4727326 C12.77563,33.8373506 12.2609648,34.0160073 11.6032523,34.0160073 C10.6381408,34.0160073 9.55859151,33.7728272 8.35760437,33.2940758 C7.15631288,32.8150202 5.99093534,32.1070891 4.86147176,31.1848916 C3.47452336,30.0554281 2.42358353,28.8115268 1.69434754,27.460188 C0.972416095,26.101849 0.607798104,24.7575104 0.607798104,23.4134761 C0.607798104,22.2983173 0.929197602,21.38312 1.57260531,20.6681887 C2.21631737,19.960562 3.0240771,19.6029442 4.00349337,19.6029442 C5.44066044,19.6029442 6.87052298,20.1535234 8.29308099,21.2473774 C9.71563899,22.3412314 10.9169305,23.8998363 11.8963468,25.9085832 C12.2752695,26.6737332 12.5753641,27.4961019 12.8042395,28.3680807 C13.0401151,29.2403638 13.2330765,29.6765054 13.404733,29.6765054 C13.5693894,29.6765054 13.6549133,29.3404968 13.6549133,28.6541749 C13.6549133,27.2955316 13.4333425,25.9874113 12.9828962,24.7149006 C12.5397545,23.4493901 11.917956,22.2983173 11.1241966,21.2832914 C10.3377418,20.2606566 9.40123967,19.4528969 8.32869059,18.8597079 C7.24944569,18.2662145 6.14828718,17.97312 5.01151907,17.97312 C4.03210279,17.97312 3.16712422,18.1873864 2.40197428,18.6238323 C1.63712869,19.0526693 1.05093984,19.6674676 0.629102995,20.4682271 C0.207266154,21.2616821 4.54747351e-13,22.1768794 4.54747351e-13,23.2065143 C4.54747351e-13,24.5505486 0.307399141,25.8799738 0.915197245,27.2097033 C1.52269099,28.5397372 2.38766957,29.7337242 3.52474203,30.7916642 C4.46124417,31.6566428 5.46926987,32.407488 6.56281949,33.0292865 C7.64967328,33.6586938 8.77213668,34.1374452 9.93020968,34.4664536 C11.0812825,34.7951576 12.1821367,34.959814 13.2260763,34.959814 C14.4057586,34.959814 15.3781747,34.659415 16.1500204,34.0589214 C16.9294751,33.4584279 17.579883,32.5432306 18.1161575,31.3136341 C18.3091189,30.8844927 18.5236896,30.3914366 18.7668697,29.8338572 C19.0027453,29.2832779 19.2316207,28.882746 19.4531916,28.618261 C19.6817626,28.3607762 19.9678569,28.1821194 20.3181702,28.089291 C21.2473678,29.5976773 22.1698695,30.8561876 23.0704577,31.8712135 C23.9713503,32.8792392 24.8293286,33.6440848 25.6443929,34.1517499 C26.4594572,34.659415 27.2243027,34.9168998 27.939234,34.9168998 C28.4825087,34.9168998 28.9116501,34.7452433 29.2260494,34.39493 C29.5407531,34.0446167 29.6981049,33.5871703 29.6981049,33.0292865 C29.6981049,32.2930503 29.397706,31.5135957 28.7972124,30.6988358 C28.1967188,29.8767713 27.346045,29.147231 26.2518867,28.5038233 C25.1580327,27.8604156 23.9141314,27.4245784 22.5344875,27.1883984 C22.1555648,25.3296989 21.6622044,23.4350854 21.0401016,21.5118624 C20.4179988,19.5816393 19.7033719,17.7372445 18.8883076,15.9713734 C18.0805479,14.2055022 17.1440458,12.4037172 16.0858014,10.573627 C15.0205568,8.75053709 13.9123982,7.02057994 12.7543252,5.40475614 L12.7543252,5.40475614 Z M22.6632299,27.8747203 C23.9141314,28.0749863 25.0365948,28.4609091 26.0233156,29.0544025 C27.0097321,29.6405914 27.7605773,30.2983038 28.2965475,31.0275398 C28.8258218,31.7640803 29.0903068,32.4287929 29.0903068,33.0292865 C29.0903068,33.3652951 28.9831737,33.6586938 28.7756032,33.9015696 C28.568337,34.1447497 28.3324614,34.2661876 28.0606719,34.2661876 C27.145779,34.2661876 26.1949722,33.7156083 25.2152515,32.6147542 C24.2358353,31.5065955 23.3851614,29.9336858 22.6632299,27.8747203 L22.6632299,27.8747203 Z M33.9660833,22.5128879 C33.9660833,22.9919436 34.1520446,23.4280852 34.5236628,23.835313 C34.8955853,24.2428451 35.2958129,24.4431111 35.7319544,24.4431111 C36.0749632,24.4431111 36.3610574,24.3286734 36.5683236,24.1071025 C36.7755897,23.8855316 36.8830272,23.5851327 36.8830272,23.2065143 C36.8830272,22.7344588 36.7113707,22.2913171 36.3610574,21.8764804 C36.0107441,21.4619481 35.6175167,21.2616821 35.1816795,21.2616821 C34.8167572,21.2616821 34.5236628,21.3761198 34.3020919,21.6119954 C34.080521,21.8551755 33.9660833,22.1552701 33.9660833,22.5128879 Z M28.6757745,13.2546954 C28.1751096,12.7683352 27.4960923,12.0607084 26.6524186,11.1312065 C25.8087449,10.2017045 25.3083843,9.65142962 25.1510325,9.47977307 C25.0009852,9.30111634 24.8579381,9.21528807 24.7291957,9.21528807 C24.6220625,9.21528807 24.5648436,9.25820221 24.5648436,9.34403048 C24.5648436,9.72995336 26.3809334,11.8032236 30.0198088,15.5638412 L33.1081049,15.7711074 L28.8471267,9.08654566 C27.9894527,7.73551121 27.4315689,6.80600926 27.1600837,6.29134396 C26.881294,5.78367884 26.7452471,5.36884218 26.7452471,5.04713833 C26.7452471,4.83987217 26.8240752,4.64660638 26.981427,4.48255872 C27.1314743,4.31090217 27.3028265,4.23237843 27.4817876,4.23237843 C27.8607103,4.23237843 28.2825471,4.36812102 28.7542983,4.6396062 C29.2190493,4.91139574 29.7553238,5.31892787 30.3701221,5.86220259 C30.9776158,6.40547731 31.6925471,7.1134084 32.5149159,7.97838697 C32.8366197,8.32870025 33.1583236,8.67901353 33.4657227,9.02932681 C33.7731219,9.37263991 33.9946927,9.61551566 34.1304353,9.75156261 C34.2734825,9.88000067 34.3952247,9.95152423 34.4880531,9.95152423 C34.6594053,9.95152423 34.7452336,9.88000067 34.7452336,9.73695354 C34.7452336,9.51538268 34.0875212,8.7292322 32.7724007,7.37058887 C31.4423668,6.03385914 30.3987315,5.07574775 29.6408861,4.50386361 C28.8900409,3.93197946 28.1824141,3.64588521 27.5247017,3.64588521 C26.8097704,3.64588521 26.2448865,3.88906533 25.8230496,4.38242573 C25.4012128,4.8684816 25.1939466,5.52619402 25.1939466,6.34825846 C25.1939466,6.93475167 25.3296892,7.53524524 25.5944786,8.15004352 C25.8586592,8.7648418 26.2019723,9.40824951 26.6238092,10.0872668 C27.0383415,10.759284 27.7249677,11.8175283 28.6757745,13.2546954 L28.6757745,13.2546954 Z M38.0697097,13.2546954 C37.7623105,12.9469919 37.3118643,12.4682406 36.7186752,11.8032236 C36.1251818,11.138511 35.6534307,10.6022365 35.2958129,10.1877042 C34.9384994,9.77986768 34.6953193,9.5083825 34.5665769,9.37263991 C34.4308343,9.23659296 34.3163966,9.17237393 34.2162636,9.17237393 C34.080521,9.17237393 34.0089975,9.22959278 34.0089975,9.34403048 C34.0089975,9.55129664 34.3380058,10.0230478 34.9957183,10.7665885 L36.3537529,12.2536699 C38.1841474,14.2484164 39.4280487,15.6779746 40.0860654,16.5432575 L48.5434984,29.6765054 L51.3316999,30.0554281 L38.1126238,9.1081549 C37.26195,7.7568161 36.697066,6.82731415 36.4255808,6.31264885 C36.1537913,5.80498374 36.0180487,5.39045143 36.0180487,5.06874757 C36.0180487,4.832872 36.0895722,4.6396062 36.2326194,4.48255872 C36.3680576,4.33220706 36.5540189,4.25368332 36.797199,4.25368332 C37.226036,4.25368332 37.690787,4.39673044 38.1771472,4.68252034 C38.6632031,4.96861459 39.1708682,5.34753729 39.6925337,5.81928845 C40.221808,6.29134396 40.9723489,7.01327541 41.944765,7.9856915 C42.2521641,8.29309065 42.5808682,8.63609939 42.9241813,9.02232663 C43.2674944,9.40124933 43.4887609,9.65142962 43.5891982,9.7728675 C43.6963314,9.8873052 43.8034645,9.95152423 43.9179022,9.95152423 C44.0822543,9.95152423 44.1680825,9.88000067 44.1680825,9.73695354 C44.1680825,9.51538268 43.5103701,8.7292322 42.2019455,7.37058887 C40.8722159,6.03385914 39.8282762,5.07574775 39.0777354,4.50386361 C38.3271945,3.93197946 37.6195678,3.64588521 36.961551,3.64588521 C36.2466197,3.64588521 35.6820401,3.88906533 35.2672034,4.38242573 C34.8453666,4.8684816 34.6381005,5.52619402 34.6381005,6.34825846 C34.6381005,7.12771311 34.873976,7.96408226 35.3530317,8.85067008 C35.8250872,9.73695354 36.7329799,11.20273 38.0697097,13.2546954 L38.0697097,13.2546954 Z M47.5138635,13.2546954 C47.2064643,12.9469919 46.7560181,12.4682406 46.162829,11.8032236 C45.5693357,11.138511 45.0975845,10.6022365 44.7399667,10.1877042 C44.3826532,9.77986768 44.1394731,9.5083825 44.0107307,9.37263991 C43.8749881,9.23659296 43.7605504,9.17237393 43.6604174,9.17237393 C43.5246748,9.17237393 43.4531513,9.22959278 43.4531513,9.34403048 C43.4531513,9.55129664 43.7821597,10.0230478 44.4398721,10.7665885 L45.7982111,12.2536699 C47.6283012,14.2484164 48.8722025,15.6779746 49.5302192,16.5432575 L57.9876522,29.6765054 L60.7758538,30.0554281 L47.5567776,9.1081549 C46.7061038,7.7568161 46.1412198,6.82731415 45.8697346,6.31264885 C45.5979451,5.80498374 45.4622025,5.39045143 45.4622025,5.06874757 C45.4622025,4.832872 45.5334217,4.6396062 45.6767732,4.48255872 C45.8125158,4.33220706 45.998477,4.25368332 46.2413528,4.25368332 C46.6704942,4.25368332 47.1349408,4.39673044 47.6209967,4.68252034 C48.1073569,4.96861459 48.615022,5.34753729 49.1366875,5.81928845 C49.6659618,6.29134396 50.4165027,7.01327541 51.3889188,7.9856915 C51.6963179,8.29309065 52.025022,8.63609939 52.3683351,9.02232663 C52.7113438,9.40124933 52.933219,9.65142962 53.0330477,9.7728675 C53.1404852,9.8873052 53.2476184,9.95152423 53.3620561,9.95152423 C53.5264081,9.95152423 53.6122363,9.88000067 53.6122363,9.73695354 C53.6122363,9.51538268 52.9545239,8.7292322 51.6460993,7.37058887 C50.3163697,6.03385914 49.2727344,5.07574775 48.5218892,4.50386361 C47.7713483,3.93197946 47.0634172,3.64588521 46.4057048,3.64588521 C45.6907735,3.64588521 45.1261939,3.88906533 44.7113573,4.38242573 C44.2895204,4.8684816 44.0822543,5.52619402 44.0822543,6.34825846 C44.0822543,7.12771311 44.3181298,7.96408226 44.7971855,8.85067008 C45.269241,9.73695354 46.1768294,11.20273 47.5138635,13.2546954 L47.5138635,13.2546954 Z M64.6865187,13.02582 L66.4450852,15.5994508 L69.2762009,15.7711074 L64.5647764,8.35730967 C63.9213687,7.30636984 63.4925317,6.57713386 63.2852656,6.16960173 C63.0779994,5.75506942 62.9708662,5.36884218 62.9708662,5.00422419 C62.9708662,4.56108246 63.1851326,4.33220706 63.6212741,4.33220706 C64.3575103,4.33220706 65.9018105,5.54780327 68.2468703,7.97838697 C68.6400977,8.37161439 68.9118873,8.6504041 69.0759349,8.82906083 C69.2335911,9.00071738 69.3906386,9.17237393 69.5336857,9.34403048 C69.683733,9.5083825 69.8124754,9.65142962 69.9339133,9.7728675 C70.0556556,9.8873052 70.148484,9.95152423 70.2200076,9.95152423 C70.3843596,9.95152423 70.4701879,9.89430538 70.4701879,9.77986768 C70.4701879,9.45816383 69.8124754,8.65770864 68.4970506,7.37058887 C67.1600165,6.00524971 66.1090767,5.04013815 65.3585358,4.48255872 C64.6079949,3.92467493 63.8644542,3.64588521 63.1349139,3.64588521 C61.9625362,3.64588521 61.3763473,4.36081648 61.3763473,5.78367884 C61.3763473,6.1053827 61.4478709,6.64865742 61.590918,7.413503 C59.5891713,4.90439556 57.7873863,3.64588521 56.1858672,3.64588521 C55.4283261,3.64588521 54.8278326,4.03211245 54.3843865,4.81126275 C53.9339402,5.58341287 53.7123693,6.6556576 53.7123693,8.02130111 C53.7123693,8.67901353 53.8125023,9.35103066 54.0054638,10.0303523 C53.6265411,9.45816383 53.3261421,9.17237393 53.1045712,9.17237393 C52.9402192,9.17237393 52.8543909,9.22959278 52.8543909,9.34403048 C52.8543909,9.60851549 53.5264081,10.409275 54.8634422,11.7460048 C56.2573907,13.1475622 57.6300344,14.1981977 58.9670685,14.8988243 C60.3111028,15.6067554 61.5193945,15.9570686 62.5916392,15.9570686 C63.2922657,15.9570686 63.842845,15.7781076 64.2503771,15.4207941 C64.6509091,15.0631763 64.8578709,14.5844249 64.8578709,13.9693223 C64.8578709,13.6835324 64.800652,13.3761333 64.6865187,13.02582 L64.6865187,13.02582 Z M55.51385,5.74076471 C55.51385,4.86148142 55.8571631,4.41803533 56.543485,4.41803533 C57.0012358,4.41803533 57.5871203,4.66121545 58.3023559,5.14027114 C59.0099827,5.62632701 59.7535233,6.28403943 60.5183689,7.12040858 C61.7050514,8.42883324 62.6132484,9.69434376 63.2350469,10.9096356 C63.8571497,12.1249275 64.1645488,13.1402577 64.1645488,13.9693223 C64.1645488,14.3555495 64.0288063,14.6772534 63.7643213,14.9274337 C63.4995319,15.177614 63.1638277,15.3063564 62.7632957,15.3063564 C62.0912786,15.3063564 61.3261287,15.0062618 60.4757592,14.3984637 C59.6247809,13.7909699 58.8097167,12.9329915 58.0305664,11.831833 C57.2011974,10.67376 56.5790946,9.55129664 56.1502576,8.45744266 C55.7284207,7.37058887 55.51385,6.46269616 55.51385,5.74076471 Z" transform="matrix(1 0 0 -1 0 37.998)"/>
    <g transform="translate(75.652)">
      <path fill="#231F20" fill-rule="nonzero" d="M30.310931,-2.48689958e-14 C30.5562416,0.750845229 30.726072,1.29411995 30.8268137,1.62160656 C30.921164,1.94939752 31.1037773,2.50849873 31.3615665,3.30712779 C30.046446,3.46691447 28.7879965,3.83457602 27.5862789,4.41741696 C26.3842874,5.00086662 25.1950484,5.78366919 24.0121096,6.75821577 C21.9166822,4.46550515 19.7646752,2.77207067 17.5622669,1.6617815 C15.3661587,0.551187965 13.0191815,-1.79487509e-14 10.52097,-1.79487509e-14 C8.36263233,-1.79487509e-14 6.487528,0.415445374 4.89559611,1.23842288 C3.30357292,2.06900927 2.08910282,3.23529987 1.25225888,4.73699033 C0.415281022,6.24689839 -5.82645043e-13,8.02037838 -5.82645043e-13,10.057126 C-5.82645043e-13,12.0701338 0.465688394,13.9236593 1.40324664,15.6170938 C2.33450473,17.3105283 3.58677579,18.6448232 5.1534766,19.6193697 C6.72032959,20.593612 8.37526308,21.0811896 10.1182771,21.0811896 C11.5845406,21.0811896 12.8743691,20.7695295 14.0007282,20.1544269 C15.127057,19.5393242 15.9829353,18.692607 16.5807201,17.6221884 C17.1785049,16.5438565 17.4741864,15.3453043 17.4741864,14.0353578 C17.4741864,11.5591208 16.7443112,9.52998209 15.2907698,7.95646371 C13.8308369,6.38264098 11.9305015,5.59192517 9.58340258,5.59192517 C8.33125327,5.59192517 7.70826782,5.76753834 7.70826782,6.12698229 C7.70826782,6.25481163 7.81527924,6.31872631 8.03545007,6.31872631 C8.01024943,6.31872631 8.16124024,6.30289982 8.48224407,6.27063812 C8.796826,6.23898514 9.1177081,6.2228543 9.43871193,6.2228543 C10.9363545,6.2228543 12.2326049,6.54242766 13.3274328,7.17366115 C14.4224129,7.80459027 15.2655692,8.66743836 15.863354,9.76159669 C16.461017,10.8481461 16.7569115,12.0543073 16.7569115,13.3642538 C16.7569115,14.2350151 16.6246995,15.018122 16.3604275,15.7050526 C16.0961251,16.3919831 15.706063,16.9909549 15.1837888,17.494359 C14.6615146,18.0056764 14.0321073,18.3809469 13.3022322,18.6448232 C12.5659656,18.9001775 11.7480099,19.0280068 10.8419434,19.0280068 C9.5015918,19.0280068 8.23057244,18.7565217 7.03500283,18.2211602 C5.83316349,17.6861031 4.78231496,16.9431711 3.8824268,15.9926686 C2.97626892,15.0418617 2.27162487,13.9556167 1.76823595,12.7254114 C1.2648592,11.5031193 1.01305365,10.2409567 1.01305365,8.93101029 C1.01305365,7.30940374 1.39064632,5.8795412 2.1394128,4.64111832 C2.88827972,3.4029998 3.97683791,2.42845322 5.41147883,1.73360941 C6.8399109,1.03054801 8.52004504,0.679321666 10.4517595,0.679321666 C11.6788299,0.679321666 12.8681907,0.822977503 14.0196287,1.10268029 C15.1648884,1.38207871 16.2912171,1.79752409 17.3923756,2.34871205 C18.4935341,2.89990002 19.5569829,3.58683057 20.5826308,4.40980808 C21.6083091,5.23248122 22.5899776,6.17507047 23.5212144,7.22935822 C20.324659,10.5206595 18.726427,14.1312298 18.726427,18.0613735 C18.726427,19.2197509 18.8837179,20.2661254 19.1982999,21.2087146 C19.5067034,22.1595215 19.9282663,22.9502373 20.4568711,23.589384 C20.9854454,24.2285307 21.602009,24.7075864 22.3067748,25.035073 C23.0115406,25.362864 23.7666163,25.5302596 24.5657628,25.5302596 C25.2264579,25.5302596 25.8997229,25.4106478 26.5731096,25.1790332 C27.2463746,24.9474186 27.9259398,24.5639306 28.5993265,24.0446999 C29.2724697,23.5254693 29.9396172,22.8303212 30.5875902,21.9595598 C31.2358676,21.0970161 31.833622,20.0427284 32.3747662,18.7963922 C33.6144065,20.5379149 34.7596966,22.0794759 35.7978535,23.4134665 C36.8360104,24.7477614 38.0190406,26.1216225 39.3405525,27.5195277 C40.6617601,28.9256505 42.1217538,30.2675542 43.7138379,31.5455433 C45.305922,32.8238368 46.9920519,33.9420392 48.7792279,34.8925417 C47.2565369,32.5681781 45.8406747,30.1957263 44.5380328,27.7830996 C43.2356953,25.362864 41.9707935,22.7746241 40.7500232,20.0265975 C39.529253,17.2706577 38.453356,14.6583737 37.5156364,12.1900499 C36.5846127,9.71381286 35.590283,6.91800245 34.5518217,3.80261868 C35.6529802,3.8744466 36.5465682,4.13010529 37.2201071,4.56959476 C37.8933417,5.00086662 38.4783131,5.51187965 38.9628472,6.08711171 C39.4476857,6.66234376 39.7368235,6.94995979 39.8375652,6.94995979 C39.9130454,6.94995979 39.9510898,6.90187161 39.9510898,6.8059996 C39.9510898,6.47851299 39.7118663,6.03902352 39.2462023,5.47992231 C38.7805382,4.9208211 38.1073037,4.40159047 37.2201071,3.91431718 C36.3329106,3.43495714 35.357451,3.13942786 34.2876411,3.02772936 L33.3313558,0.535361475 L30.310931,-2.48689958e-14 Z M33.0604794,7.8605917 C36.238256,16.4239404 40.7058917,24.6996732 46.4761692,32.6719634 C42.4741976,30.5311262 37.8680802,25.682133 32.6517298,18.1173749 C33.1298724,16.1923258 33.3687916,14.1233166 33.3687916,11.8866074 C33.3687916,10.7361433 33.2683542,9.3942395 33.0604794,7.8605917 L33.0604794,7.8605917 Z M31.5819199,3.9861451 C32.4188978,6.62247318 32.8340388,9.22653957 32.8340388,11.7986486 C32.8340388,14.0113137 32.6328598,15.9366672 32.2238059,17.5741002 C31.367958,16.4239404 30.6253303,15.4095233 30.0090103,14.5466752 C29.38569,13.6759139 28.8320977,12.9089378 28.3413243,12.2381381 C27.8505509,11.567034 27.2337743,10.7522741 26.4912988,9.79355402 C25.7487321,8.83513829 25.0817673,8.01216078 24.4902826,7.32523023 C26.4723984,5.42422524 28.8320977,4.31363171 31.5819199,3.9861451 L31.5819199,3.9861451 Z M24.0121096,7.70080502 C24.5154833,8.27603708 25.1698478,9.07466613 25.9753248,10.0973009 C26.7806801,11.1196313 27.5610783,12.1501793 28.3161236,13.1886406 C29.0711994,14.2271018 29.7633953,15.1855176 30.3924983,16.080323 C31.0279928,16.9672152 31.5505713,17.6940163 31.9657123,18.2531175 C31.1917361,20.2101239 30.2731909,21.6722482 29.1970809,22.6464904 C28.1210317,23.6213413 26.9128922,24.1086146 25.5600316,24.1086146 C24.5909939,24.1086146 23.6911057,23.7729104 22.8542496,23.1100239 C22.0173935,22.4471375 21.3566071,21.5362012 20.8658337,20.3781282 C20.3750603,19.2118376 20.1295671,17.9098044 20.1295671,16.4796375 C20.1295671,14.7782898 20.4379402,13.2205979 21.0609256,11.8065619 C21.6776109,10.3928302 22.6655796,9.0268823 24.0121096,7.70080502 L24.0121096,7.70080502 Z" transform="matrix(1 0 0 -1 0 34.893)"/>
      <path stroke="#000" stroke-width=".667" d="M30.310931,-2.48689958e-14 C30.5562416,0.750845229 30.726072,1.29411995 30.8268137,1.62160656 C30.921164,1.94939752 31.1037773,2.50849873 31.3615665,3.30712779 C30.046446,3.46691447 28.7879965,3.83457602 27.5862789,4.41741696 C26.3842874,5.00086662 25.1950484,5.78366919 24.0121096,6.75821577 C21.9166822,4.46550515 19.7646752,2.77207067 17.5622669,1.6617815 C15.3661587,0.551187965 13.0191815,-1.79487509e-14 10.52097,-1.79487509e-14 C8.36263233,-1.79487509e-14 6.487528,0.415445374 4.89559611,1.23842288 C3.30357292,2.06900927 2.08910282,3.23529987 1.25225888,4.73699033 C0.415281022,6.24689839 -5.82645043e-13,8.02037838 -5.82645043e-13,10.057126 C-5.82645043e-13,12.0701338 0.465688394,13.9236593 1.40324664,15.6170938 C2.33450473,17.3105283 3.58677579,18.6448232 5.1534766,19.6193697 C6.72032959,20.593612 8.37526308,21.0811896 10.1182771,21.0811896 C11.5845406,21.0811896 12.8743691,20.7695295 14.0007282,20.1544269 C15.127057,19.5393242 15.9829353,18.692607 16.5807201,17.6221884 C17.1785049,16.5438565 17.4741864,15.3453043 17.4741864,14.0353578 C17.4741864,11.5591208 16.7443112,9.52998209 15.2907698,7.95646371 C13.8308369,6.38264098 11.9305015,5.59192517 9.58340258,5.59192517 C8.33125327,5.59192517 7.70826782,5.76753834 7.70826782,6.12698229 C7.70826782,6.25481163 7.81527924,6.31872631 8.03545007,6.31872631 C8.01024943,6.31872631 8.16124024,6.30289982 8.48224407,6.27063812 C8.796826,6.23898514 9.1177081,6.2228543 9.43871193,6.2228543 C10.9363545,6.2228543 12.2326049,6.54242766 13.3274328,7.17366115 C14.4224129,7.80459027 15.2655692,8.66743836 15.863354,9.76159669 C16.461017,10.8481461 16.7569115,12.0543073 16.7569115,13.3642538 C16.7569115,14.2350151 16.6246995,15.018122 16.3604275,15.7050526 C16.0961251,16.3919831 15.706063,16.9909549 15.1837888,17.494359 C14.6615146,18.0056764 14.0321073,18.3809469 13.3022322,18.6448232 C12.5659656,18.9001775 11.7480099,19.0280068 10.8419434,19.0280068 C9.5015918,19.0280068 8.23057244,18.7565217 7.03500283,18.2211602 C5.83316349,17.6861031 4.78231496,16.9431711 3.8824268,15.9926686 C2.97626892,15.0418617 2.27162487,13.9556167 1.76823595,12.7254114 C1.2648592,11.5031193 1.01305365,10.2409567 1.01305365,8.93101029 C1.01305365,7.30940374 1.39064632,5.8795412 2.1394128,4.64111832 C2.88827972,3.4029998 3.97683791,2.42845322 5.41147883,1.73360941 C6.8399109,1.03054801 8.52004504,0.679321666 10.4517595,0.679321666 C11.6788299,0.679321666 12.8681907,0.822977503 14.0196287,1.10268029 C15.1648884,1.38207871 16.2912171,1.79752409 17.3923756,2.34871205 C18.4935341,2.89990002 19.5569829,3.58683057 20.5826308,4.40980808 C21.6083091,5.23248122 22.5899776,6.17507047 23.5212144,7.22935822 C20.324659,10.5206595 18.726427,14.1312298 18.726427,18.0613735 C18.726427,19.2197509 18.8837179,20.2661254 19.1982999,21.2087146 C19.5067034,22.1595215 19.9282663,22.9502373 20.4568711,23.589384 C20.9854454,24.2285307 21.602009,24.7075864 22.3067748,25.035073 C23.0115406,25.362864 23.7666163,25.5302596 24.5657628,25.5302596 C25.2264579,25.5302596 25.8997229,25.4106478 26.5731096,25.1790332 C27.2463746,24.9474186 27.9259398,24.5639306 28.5993265,24.0446999 C29.2724697,23.5254693 29.9396172,22.8303212 30.5875902,21.9595598 C31.2358676,21.0970161 31.833622,20.0427284 32.3747662,18.7963922 C33.6144065,20.5379149 34.7596966,22.0794759 35.7978535,23.4134665 C36.8360104,24.7477614 38.0190406,26.1216225 39.3405525,27.5195277 C40.6617601,28.9256505 42.1217538,30.2675542 43.7138379,31.5455433 C45.305922,32.8238368 46.9920519,33.9420392 48.7792279,34.8925417 C47.2565369,32.5681781 45.8406747,30.1957263 44.5380328,27.7830996 C43.2356953,25.362864 41.9707935,22.7746241 40.7500232,20.0265975 C39.529253,17.2706577 38.453356,14.6583737 37.5156364,12.1900499 C36.5846127,9.71381286 35.590283,6.91800245 34.5518217,3.80261868 C35.6529802,3.8744466 36.5465682,4.13010529 37.2201071,4.56959476 C37.8933417,5.00086662 38.4783131,5.51187965 38.9628472,6.08711171 C39.4476857,6.66234376 39.7368235,6.94995979 39.8375652,6.94995979 C39.9130454,6.94995979 39.9510898,6.90187161 39.9510898,6.8059996 C39.9510898,6.47851299 39.7118663,6.03902352 39.2462023,5.47992231 C38.7805382,4.9208211 38.1073037,4.40159047 37.2201071,3.91431718 C36.3329106,3.43495714 35.357451,3.13942786 34.2876411,3.02772936 L33.3313558,0.535361475 L30.310931,-2.48689958e-14 Z M33.0604794,7.8605917 C36.238256,16.4239404 40.7058917,24.6996732 46.4761692,32.6719634 C42.4741976,30.5311262 37.8680802,25.682133 32.6517298,18.1173749 C33.1298724,16.1923258 33.3687916,14.1233166 33.3687916,11.8866074 C33.3687916,10.7361433 33.2683542,9.3942395 33.0604794,7.8605917 L33.0604794,7.8605917 Z M31.5819199,3.9861451 C32.4188978,6.62247318 32.8340388,9.22653957 32.8340388,11.7986486 C32.8340388,14.0113137 32.6328598,15.9366672 32.2238059,17.5741002 C31.367958,16.4239404 30.6253303,15.4095233 30.0090103,14.5466752 C29.38569,13.6759139 28.8320977,12.9089378 28.3413243,12.2381381 C27.8505509,11.567034 27.2337743,10.7522741 26.4912988,9.79355402 C25.7487321,8.83513829 25.0817673,8.01216078 24.4902826,7.32523023 C26.4723984,5.42422524 28.8320977,4.31363171 31.5819199,3.9861451 L31.5819199,3.9861451 Z M24.0121096,7.70080502 C24.5154833,8.27603708 25.1698478,9.07466613 25.9753248,10.0973009 C26.7806801,11.1196313 27.5610783,12.1501793 28.3161236,13.1886406 C29.0711994,14.2271018 29.7633953,15.1855176 30.3924983,16.080323 C31.0279928,16.9672152 31.5505713,17.6940163 31.9657123,18.2531175 C31.1917361,20.2101239 30.2731909,21.6722482 29.1970809,22.6464904 C28.1210317,23.6213413 26.9128922,24.1086146 25.5600316,24.1086146 C24.5909939,24.1086146 23.6911057,23.7729104 22.8542496,23.1100239 C22.0173935,22.4471375 21.3566071,21.5362012 20.8658337,20.3781282 C20.3750603,19.2118376 20.1295671,17.9098044 20.1295671,16.4796375 C20.1295671,14.7782898 20.4379402,13.2205979 21.0609256,11.8065619 C21.6776109,10.3928302 22.6655796,9.0268823 24.0121096,7.70080502 L24.0121096,7.70080502 Z" transform="matrix(1 0 0 -1 0 34.893)"/>
      <path fill="#231F20" fill-rule="nonzero" d="M40.5892846,21.7599648 L46.0132055,30.1172649 C46.5214793,30.8608055 46.8626619,31.3900799 47.0577538,31.7187839 C47.2458456,32.0477923 47.3432394,32.3764964 47.3432394,32.6912 C47.3432394,33.0701227 47.1481475,33.2630842 46.7722683,33.2630842 C46.3056912,33.2630842 45.7070238,32.9483805 44.9619613,32.326582 C44.223899,31.7044792 43.193351,30.6678441 41.8773174,29.2166767 C41.6125281,28.937887 41.2646496,28.5160501 40.8120729,27.9584707 C40.3661919,27.4005869 40.0670104,27.1217972 39.9136152,27.1217972 C39.7815249,27.1217972 39.7118274,27.179016 39.7118274,27.2934537 C39.7118274,27.5007199 40.0320095,27.972471 40.672678,28.7160117 L41.9957117,30.2030931 C43.193351,31.5258225 44.1542016,32.4839339 44.8712633,33.0701227 C45.5956296,33.6563116 46.2776905,33.949406 46.9323593,33.949406 C47.273542,33.949406 47.5660277,33.8705779 47.8028163,33.7065303 C48.0393006,33.5488741 48.2273924,33.320303 48.359787,33.0199041 C48.4991819,32.7198095 48.568575,32.3478869 48.568575,31.9190499 C48.568575,30.6894534 48.0116042,29.1451531 46.8906626,27.2934537 C48.8680609,29.5812947 50.4485794,31.254033 51.6392185,32.3122773 C52.8228573,33.3775219 53.7840123,33.9064919 54.501074,33.9064919 C54.9816515,33.9064919 55.3575307,33.7278352 55.6430162,33.3632172 C55.9285017,32.9985992 56.0748968,32.4909341 56.0748968,31.8332216 C56.0748968,31.2470328 55.9701984,30.6964535 55.7544103,30.1817882 C55.5456224,29.6598184 55.2878332,29.1807627 54.9953475,28.7446212 C54.696166,28.3014794 54.1948923,27.5865482 53.5052226,26.6001317 C52.8091613,25.6204111 52.3145835,24.8625657 52.015402,24.3265955 C51.7159161,23.7903209 51.5628252,23.3468749 51.5628252,22.9968659 C51.5628252,22.4818963 51.7923093,22.2247158 52.2381903,22.2247158 C52.9622522,22.2247158 54.4593773,23.4400077 56.7499575,25.8848961 C57.1538373,26.3210376 57.5580215,26.7644837 57.9475967,27.21493 C58.3447807,27.6723764 58.5815694,27.9012518 58.6649628,27.9012518 C58.8390542,27.9012518 58.9294478,27.8297283 58.9294478,27.6866811 C58.9294478,27.5223291 58.7973575,27.2861492 58.5325681,26.9860546 C58.2680831,26.6856556 57.7111124,26.0924666 56.8683518,25.1985742 C54.5847718,22.7966 53.0249494,21.5956128 52.1964935,21.5956128 C51.5975218,21.5956128 51.1172486,21.8814027 50.7480653,22.4462867 C50.3791863,23.0108663 50.1980948,23.7404066 50.1980948,24.6339946 C50.1980948,25.4274496 50.3998825,26.1925996 50.8107626,26.9358359 C51.2146424,27.6723764 51.9040078,28.6660974 52.8718586,29.9099987 C53.2894345,30.4535778 53.6446174,30.9110242 53.930103,31.2826424 C54.2155885,31.6472604 54.4176806,31.9403548 54.5357706,32.1479253 C54.6471647,32.3621916 54.709862,32.5551531 54.709862,32.7341142 C54.709862,33.055818 54.5497709,33.22017 54.236589,33.22017 C53.8327092,33.22017 53.1433438,32.8056377 52.1894934,31.9689642 C51.2286428,31.1395953 50.0310036,29.9099987 48.5895755,28.27287 C47.1411473,26.6427415 45.4492346,24.5694712 43.5065329,22.0530593 L40.5892846,21.7599648 Z M59.3333277,27.9940803 C58.9294478,27.4508056 58.6232661,27.179016 58.4141738,27.179016 C58.2540828,27.179016 58.1706893,27.2289303 58.1706893,27.3436724 C58.1706893,27.5223291 58.7276601,28.2299559 59.8416015,29.4525523 C61.1646352,30.9037197 62.4736686,32.0048782 63.7687016,32.7697238 C65.0707348,33.5275692 66.2753742,33.9064919 67.3893157,33.9064919 C68.2320763,33.9064919 68.9004411,33.7065303 69.3807142,33.3129985 C69.8612917,32.9127709 70.1050805,32.3621916 70.1050805,31.6688696 C70.1050805,31.0896809 69.9519897,30.6179298 69.6455036,30.2533118 C69.3390175,29.8813893 68.9838346,29.695428 68.5732589,29.695428 C67.7304983,29.695428 67.3059222,30.0673505 67.3059222,30.8038911 C67.3059222,31.0467668 67.3616193,31.2254235 67.4660133,31.3614705 C67.5774074,31.4972131 67.7444986,31.6329557 67.9605911,31.7686983 C68.1763792,31.9117454 68.3434704,32.0334876 68.4478644,32.1479253 C68.5592585,32.2620587 68.6149556,32.3981056 68.6149556,32.5624576 C68.6149556,32.7770283 68.538258,32.9483805 68.3781669,33.0914276 C68.2250761,33.2271702 68.009288,33.2986938 67.7374984,33.2986938 C67.0274369,33.2986938 66.1429795,32.8412473 65.077735,31.9333546 C64.0054903,31.0181574 63.0863364,29.8600844 62.2995772,28.4515267 C61.5198182,27.0432734 61.1299387,25.6347158 61.1299387,24.2334627 C61.1299387,23.6043597 61.2830295,23.1109993 61.5892113,22.7466856 C61.8956973,22.3817633 62.3135776,22.2031066 62.8425476,22.2031066 C63.6156108,22.2031066 64.4093701,22.4675916 65.2101297,22.9895614 C66.0108892,23.5115312 66.9367389,24.3049862 67.9812873,25.377231 C68.538258,25.9351148 69.053532,26.4999987 69.5271093,27.0645783 C69.9936864,27.6224621 70.2861721,27.908252 70.4112623,27.908252 C70.5716577,27.908252 70.6550511,27.8367285 70.6550511,27.7009859 C70.6550511,27.4721105 69.9519897,26.6141321 68.5312578,25.1200505 C67.403316,23.954673 66.3657678,23.0823899 65.4119174,22.4892008 C64.458067,21.8957074 63.5249128,21.5956128 62.5990631,21.5956128 C61.5755153,21.5956128 60.7397548,22.03145 60.0783901,22.8967329 C59.4167211,23.7617115 59.0895388,24.8768704 59.0895388,26.2282092 C59.0895388,26.750179 59.1732366,27.3363679 59.3333277,27.9940803 L59.3333277,27.9940803 Z M79.5954964,25.6992392 C79.7345869,25.6706298 79.8602858,25.6420203 79.9716799,25.6134109 C80.0897699,25.5848015 80.187468,25.5704968 80.2708614,25.5704968 C81.4548047,25.5704968 82.6104428,26.1995998 83.7383846,27.4578057 L84.267659,28.108518 C84.3510524,28.1943463 84.4627509,28.2299559 84.6158418,28.2299559 C84.7202357,28.2299559 84.7759328,28.1514321 84.7759328,27.9797756 C84.7759328,27.8726424 84.7619325,27.8011188 84.7342361,27.7725094 L84.267659,27.2076255 C83.7246886,26.5213036 83.0700198,25.9780289 82.3179571,25.5848015 C81.5658945,25.1845739 80.7931356,24.9843079 80.0063764,24.9843079 C79.6231928,24.9843079 79.3030107,25.012613 79.0455259,25.0701362 C78.021978,23.9260635 77.0471271,23.061085 76.1069727,22.4748961 C75.1671226,21.8887072 74.310666,21.5956128 73.5379072,21.5956128 C72.6534499,21.5956128 71.9640845,21.9815357 71.4768112,22.7466856 C70.9822333,23.5115312 70.7387489,24.6196899 70.7387489,26.0565526 C70.7387489,26.5855226 70.850143,27.2435394 71.0659311,28.0226897 C70.6273547,27.4508056 70.3208687,27.1647113 70.1467773,27.1647113 C70.0143826,27.1647113 69.9449895,27.2219302 69.9449895,27.3290633 C69.9449895,27.5007199 70.5159606,28.2299559 71.6579027,29.531076 C72.5420557,30.524797 73.4125127,31.3401656 74.2759695,31.9905735 C75.1394263,32.6409814 75.9818825,33.1343418 76.7963381,33.4776549 C77.6180982,33.8206636 78.3491603,33.9923202 79.0038291,33.9923202 C79.8879821,33.9923202 80.5843477,33.7065303 81.1066219,33.1416463 C81.6215915,32.5767623 81.8793807,31.8259171 81.8793807,30.889415 C81.8793807,30.09596 81.6982891,29.2952004 81.3294102,28.4871363 C80.9602268,27.6723764 80.3822556,26.7428745 79.5954964,25.6992392 L79.5954964,25.6992392 Z M72.5770566,23.8116258 C72.5770566,22.7966 73.0086328,22.2816303 73.8650894,22.2816303 C74.2829697,22.2816303 74.8606366,22.5035055 75.5850029,22.9466473 C76.316065,23.3827888 77.0541273,24.0118918 77.7991897,24.8412608 C78.7530401,25.8848961 79.4841023,26.9644453 79.9923761,28.072604 C80.5006499,29.1807627 80.7584391,30.1887884 80.7584391,31.0969855 C80.7584391,31.7833073 80.6120441,32.3122773 80.3265585,32.6912 C80.0413773,33.0701227 79.6581937,33.2557796 79.1639202,33.2557796 C77.9175841,33.2557796 76.4971565,32.0977066 74.9026376,29.7812563 C73.3498154,27.5077201 72.5770566,25.5132779 72.5770566,23.8116258 L72.5770566,23.8116258 Z M84.6925394,21.802879 L90.1164603,30.1172649 C90.5830374,30.8038911 90.9172198,31.3328611 91.1263121,31.7117838 C91.3421002,32.0834019 91.4464942,32.4124103 91.4464942,32.6912 C91.4464942,33.0701227 91.2517066,33.2630842 90.8755231,33.2630842 C90.408946,33.2630842 89.8102786,32.9483805 89.0652161,32.326582 C88.3271538,31.7044792 87.2966058,30.6678441 85.9805722,29.2166767 C85.7160872,28.937887 85.3679044,28.5160501 84.9153277,27.9584707 C84.4697511,27.4005869 84.1702652,27.1217972 84.0171743,27.1217972 C83.8847797,27.1217972 83.8150822,27.179016 83.8150822,27.2861492 C83.8150822,27.5007199 84.1352643,27.972471 84.7759328,28.7160117 L86.0989665,30.2030931 C87.2966058,31.5258225 88.2574564,32.4839339 88.9748225,33.0701227 C89.6988844,33.6563116 90.3812496,33.949406 91.0356141,33.949406 C91.3767968,33.949406 91.6622823,33.8705779 91.9060711,33.7065303 C92.1428598,33.5488741 92.3306472,33.3273032 92.4630418,33.0488178 C92.6024367,32.7697238 92.6721341,32.4553245 92.6721341,32.1047068 C92.6721341,31.2826424 92.5047386,30.4818828 92.1775563,29.695428 C91.850374,28.9162777 91.3491004,27.944166 90.6667352,26.7857886 C92.205557,28.308784 93.4028919,29.4455521 94.2596529,30.2030931 C94.7469261,31.5258225 95.2411996,32.4839339 95.7287773,33.0701227 C96.2160506,33.6563116 96.8707194,33.949406 97.685175,33.949406 C97.9706605,33.949406 98.2074492,33.8778825 98.3815405,33.7421399 C98.5556319,33.5990927 98.6460256,33.4417409 98.6460256,33.2557796 C98.6460256,33.0055994 98.5279356,32.7411144 98.2981471,32.4623246 C98.0683587,32.1835349 97.6297823,31.797612 96.9961139,31.2969471 C96.3554454,30.8038911 95.8818681,30.4389687 95.5893824,30.2030931 C94.4404401,29.3311144 93.8697734,28.2801745 93.8697734,27.0359689 C93.8697734,26.6999603 93.9741673,26.4284752 94.1689549,26.2065999 C94.3640468,25.9923336 94.6145315,25.8848961 94.9140174,25.8848961 C95.3875947,25.8848961 95.8261711,26.020943 96.2300509,26.2924282 C96.6269306,26.5642177 97.0238103,26.9072265 97.4136898,27.3220632 C97.7965691,27.7295953 98.0263576,27.9368614 98.096055,27.9368614 C98.256146,27.9368614 98.3398438,27.8653379 98.3398438,27.7295953 C98.3398438,27.543634 98.1587523,27.2578441 97.7895689,26.8573122 C97.42069,26.4640848 96.9751134,26.1067713 96.445839,25.7920676 C95.9098688,25.4776683 95.4362915,25.3203165 95.0117155,25.3203165 C93.8487728,25.3203165 93.2638014,25.8778959 93.2638014,26.9930548 C93.2638014,27.3862822 93.4378928,28.072604 93.7930757,29.0450201 C92.1428598,27.6224621 90.0817637,25.3060118 87.6097877,22.0959734 L84.6925394,21.802879 Z M109.083596,30.9752432 L110.796509,33.5488741 L113.553971,33.7205306 L108.965202,26.3067329 C108.338534,25.2557931 107.920653,24.5265571 107.718866,24.1193293 C107.517078,23.7044927 107.412684,23.3185698 107.412684,22.9539518 C107.412684,22.5105057 107.621472,22.2816303 108.046048,22.2816303 C108.763414,22.2816303 110.267235,23.4972265 112.551119,25.9278102 C112.933999,26.3210376 113.198788,26.6001317 113.358879,26.7787884 C113.512274,26.9501406 113.665365,27.1217972 113.804455,27.2934537 C113.950851,27.4578057 114.075941,27.6008529 114.194335,27.7222908 C114.312729,27.8367285 114.403427,27.9012518 114.473125,27.9012518 C114.632911,27.9012518 114.716609,27.844033 114.716609,27.7295953 C114.716609,27.4078914 114.075941,26.6071319 112.794908,25.3203165 C111.492875,23.954673 110.469327,22.9895614 109.738265,22.431982 C109.007203,21.8744025 108.282836,21.5956128 107.572775,21.5956128 C106.430833,21.5956128 105.859862,22.3105441 105.859862,23.7331021 C105.859862,24.0548059 105.929255,24.5980807 106.06865,25.3632306 C104.118948,22.8538188 102.364338,21.5956128 100.80482,21.5956128 C100.066757,21.5956128 99.481786,21.9815357 99.0499054,22.760686 C98.611329,23.5328361 98.3955409,24.6053852 98.3955409,25.9707244 C98.3955409,26.6284368 98.4929347,27.3004539 98.6810264,27.9797756 C98.3118431,27.4078914 98.0193574,27.1217972 97.8035693,27.1217972 C97.6434783,27.1217972 97.5600848,27.179016 97.5600848,27.2934537 C97.5600848,27.5579387 98.2144493,28.3586983 99.5164825,29.695428 C100.874517,31.0969855 102.211247,32.1479253 103.51328,32.8482475 C104.822313,33.5561786 105.998952,33.9064919 107.043501,33.9064919 C107.725866,33.9064919 108.26214,33.7278352 108.658716,33.3702173 C109.048899,33.0129039 109.250687,32.5338482 109.250687,31.9190499 C109.250687,31.6329557 109.19499,31.3255565 109.083596,30.9752432 L109.083596,30.9752432 Z M100.150151,23.690188 C100.150151,22.8109047 100.484333,22.3674586 101.152698,22.3674586 C101.598579,22.3674586 102.16955,22.6106387 102.865611,23.0896944 C103.554977,23.5757503 104.279343,24.2334627 105.024101,25.0701362 C106.180044,26.3782565 107.064197,27.643767 107.670169,28.8590589 C108.275836,30.0743507 108.575322,31.0896809 108.575322,31.9190499 C108.575322,32.3049728 108.442927,32.6266767 108.185443,32.8771613 C107.927958,33.1273416 107.600471,33.2557796 107.210592,33.2557796 C106.555923,33.2557796 105.81086,32.955685 104.982404,32.3478869 C104.153949,31.7403932 103.360189,30.8824148 102.601126,29.7812563 C101.793367,28.6231833 101.187699,27.5007199 100.769819,26.4068659 C100.359243,25.3203165 100.150151,24.4121194 100.150151,23.690188 L100.150151,23.690188 Z" transform="matrix(1 0 0 -1 0 55.588)"/>
      <path stroke="#000" stroke-width=".667" d="M40.5892846,21.7599648 L46.0132055,30.1172649 C46.5214793,30.8608055 46.8626619,31.3900799 47.0577538,31.7187839 C47.2458456,32.0477923 47.3432394,32.3764964 47.3432394,32.6912 C47.3432394,33.0701227 47.1481475,33.2630842 46.7722683,33.2630842 C46.3056912,33.2630842 45.7070238,32.9483805 44.9619613,32.326582 C44.223899,31.7044792 43.193351,30.6678441 41.8773174,29.2166767 C41.6125281,28.937887 41.2646496,28.5160501 40.8120729,27.9584707 C40.3661919,27.4005869 40.0670104,27.1217972 39.9136152,27.1217972 C39.7815249,27.1217972 39.7118274,27.179016 39.7118274,27.2934537 C39.7118274,27.5007199 40.0320095,27.972471 40.672678,28.7160117 L41.9957117,30.2030931 C43.193351,31.5258225 44.1542016,32.4839339 44.8712633,33.0701227 C45.5956296,33.6563116 46.2776905,33.949406 46.9323593,33.949406 C47.273542,33.949406 47.5660277,33.8705779 47.8028163,33.7065303 C48.0393006,33.5488741 48.2273924,33.320303 48.359787,33.0199041 C48.4991819,32.7198095 48.568575,32.3478869 48.568575,31.9190499 C48.568575,30.6894534 48.0116042,29.1451531 46.8906626,27.2934537 C48.8680609,29.5812947 50.4485794,31.254033 51.6392185,32.3122773 C52.8228573,33.3775219 53.7840123,33.9064919 54.501074,33.9064919 C54.9816515,33.9064919 55.3575307,33.7278352 55.6430162,33.3632172 C55.9285017,32.9985992 56.0748968,32.4909341 56.0748968,31.8332216 C56.0748968,31.2470328 55.9701984,30.6964535 55.7544103,30.1817882 C55.5456224,29.6598184 55.2878332,29.1807627 54.9953475,28.7446212 C54.696166,28.3014794 54.1948923,27.5865482 53.5052226,26.6001317 C52.8091613,25.6204111 52.3145835,24.8625657 52.015402,24.3265955 C51.7159161,23.7903209 51.5628252,23.3468749 51.5628252,22.9968659 C51.5628252,22.4818963 51.7923093,22.2247158 52.2381903,22.2247158 C52.9622522,22.2247158 54.4593773,23.4400077 56.7499575,25.8848961 C57.1538373,26.3210376 57.5580215,26.7644837 57.9475967,27.21493 C58.3447807,27.6723764 58.5815694,27.9012518 58.6649628,27.9012518 C58.8390542,27.9012518 58.9294478,27.8297283 58.9294478,27.6866811 C58.9294478,27.5223291 58.7973575,27.2861492 58.5325681,26.9860546 C58.2680831,26.6856556 57.7111124,26.0924666 56.8683518,25.1985742 C54.5847718,22.7966 53.0249494,21.5956128 52.1964935,21.5956128 C51.5975218,21.5956128 51.1172486,21.8814027 50.7480653,22.4462867 C50.3791863,23.0108663 50.1980948,23.7404066 50.1980948,24.6339946 C50.1980948,25.4274496 50.3998825,26.1925996 50.8107626,26.9358359 C51.2146424,27.6723764 51.9040078,28.6660974 52.8718586,29.9099987 C53.2894345,30.4535778 53.6446174,30.9110242 53.930103,31.2826424 C54.2155885,31.6472604 54.4176806,31.9403548 54.5357706,32.1479253 C54.6471647,32.3621916 54.709862,32.5551531 54.709862,32.7341142 C54.709862,33.055818 54.5497709,33.22017 54.236589,33.22017 C53.8327092,33.22017 53.1433438,32.8056377 52.1894934,31.9689642 C51.2286428,31.1395953 50.0310036,29.9099987 48.5895755,28.27287 C47.1411473,26.6427415 45.4492346,24.5694712 43.5065329,22.0530593 L40.5892846,21.7599648 Z M59.3333277,27.9940803 C58.9294478,27.4508056 58.6232661,27.179016 58.4141738,27.179016 C58.2540828,27.179016 58.1706893,27.2289303 58.1706893,27.3436724 C58.1706893,27.5223291 58.7276601,28.2299559 59.8416015,29.4525523 C61.1646352,30.9037197 62.4736686,32.0048782 63.7687016,32.7697238 C65.0707348,33.5275692 66.2753742,33.9064919 67.3893157,33.9064919 C68.2320763,33.9064919 68.9004411,33.7065303 69.3807142,33.3129985 C69.8612917,32.9127709 70.1050805,32.3621916 70.1050805,31.6688696 C70.1050805,31.0896809 69.9519897,30.6179298 69.6455036,30.2533118 C69.3390175,29.8813893 68.9838346,29.695428 68.5732589,29.695428 C67.7304983,29.695428 67.3059222,30.0673505 67.3059222,30.8038911 C67.3059222,31.0467668 67.3616193,31.2254235 67.4660133,31.3614705 C67.5774074,31.4972131 67.7444986,31.6329557 67.9605911,31.7686983 C68.1763792,31.9117454 68.3434704,32.0334876 68.4478644,32.1479253 C68.5592585,32.2620587 68.6149556,32.3981056 68.6149556,32.5624576 C68.6149556,32.7770283 68.538258,32.9483805 68.3781669,33.0914276 C68.2250761,33.2271702 68.009288,33.2986938 67.7374984,33.2986938 C67.0274369,33.2986938 66.1429795,32.8412473 65.077735,31.9333546 C64.0054903,31.0181574 63.0863364,29.8600844 62.2995772,28.4515267 C61.5198182,27.0432734 61.1299387,25.6347158 61.1299387,24.2334627 C61.1299387,23.6043597 61.2830295,23.1109993 61.5892113,22.7466856 C61.8956973,22.3817633 62.3135776,22.2031066 62.8425476,22.2031066 C63.6156108,22.2031066 64.4093701,22.4675916 65.2101297,22.9895614 C66.0108892,23.5115312 66.9367389,24.3049862 67.9812873,25.377231 C68.538258,25.9351148 69.053532,26.4999987 69.5271093,27.0645783 C69.9936864,27.6224621 70.2861721,27.908252 70.4112623,27.908252 C70.5716577,27.908252 70.6550511,27.8367285 70.6550511,27.7009859 C70.6550511,27.4721105 69.9519897,26.6141321 68.5312578,25.1200505 C67.403316,23.954673 66.3657678,23.0823899 65.4119174,22.4892008 C64.458067,21.8957074 63.5249128,21.5956128 62.5990631,21.5956128 C61.5755153,21.5956128 60.7397548,22.03145 60.0783901,22.8967329 C59.4167211,23.7617115 59.0895388,24.8768704 59.0895388,26.2282092 C59.0895388,26.750179 59.1732366,27.3363679 59.3333277,27.9940803 L59.3333277,27.9940803 Z M79.5954964,25.6992392 C79.7345869,25.6706298 79.8602858,25.6420203 79.9716799,25.6134109 C80.0897699,25.5848015 80.187468,25.5704968 80.2708614,25.5704968 C81.4548047,25.5704968 82.6104428,26.1995998 83.7383846,27.4578057 L84.267659,28.108518 C84.3510524,28.1943463 84.4627509,28.2299559 84.6158418,28.2299559 C84.7202357,28.2299559 84.7759328,28.1514321 84.7759328,27.9797756 C84.7759328,27.8726424 84.7619325,27.8011188 84.7342361,27.7725094 L84.267659,27.2076255 C83.7246886,26.5213036 83.0700198,25.9780289 82.3179571,25.5848015 C81.5658945,25.1845739 80.7931356,24.9843079 80.0063764,24.9843079 C79.6231928,24.9843079 79.3030107,25.012613 79.0455259,25.0701362 C78.021978,23.9260635 77.0471271,23.061085 76.1069727,22.4748961 C75.1671226,21.8887072 74.310666,21.5956128 73.5379072,21.5956128 C72.6534499,21.5956128 71.9640845,21.9815357 71.4768112,22.7466856 C70.9822333,23.5115312 70.7387489,24.6196899 70.7387489,26.0565526 C70.7387489,26.5855226 70.850143,27.2435394 71.0659311,28.0226897 C70.6273547,27.4508056 70.3208687,27.1647113 70.1467773,27.1647113 C70.0143826,27.1647113 69.9449895,27.2219302 69.9449895,27.3290633 C69.9449895,27.5007199 70.5159606,28.2299559 71.6579027,29.531076 C72.5420557,30.524797 73.4125127,31.3401656 74.2759695,31.9905735 C75.1394263,32.6409814 75.9818825,33.1343418 76.7963381,33.4776549 C77.6180982,33.8206636 78.3491603,33.9923202 79.0038291,33.9923202 C79.8879821,33.9923202 80.5843477,33.7065303 81.1066219,33.1416463 C81.6215915,32.5767623 81.8793807,31.8259171 81.8793807,30.889415 C81.8793807,30.09596 81.6982891,29.2952004 81.3294102,28.4871363 C80.9602268,27.6723764 80.3822556,26.7428745 79.5954964,25.6992392 L79.5954964,25.6992392 Z M72.5770566,23.8116258 C72.5770566,22.7966 73.0086328,22.2816303 73.8650894,22.2816303 C74.2829697,22.2816303 74.8606366,22.5035055 75.5850029,22.9466473 C76.316065,23.3827888 77.0541273,24.0118918 77.7991897,24.8412608 C78.7530401,25.8848961 79.4841023,26.9644453 79.9923761,28.072604 C80.5006499,29.1807627 80.7584391,30.1887884 80.7584391,31.0969855 C80.7584391,31.7833073 80.6120441,32.3122773 80.3265585,32.6912 C80.0413773,33.0701227 79.6581937,33.2557796 79.1639202,33.2557796 C77.9175841,33.2557796 76.4971565,32.0977066 74.9026376,29.7812563 C73.3498154,27.5077201 72.5770566,25.5132779 72.5770566,23.8116258 L72.5770566,23.8116258 Z M84.6925394,21.802879 L90.1164603,30.1172649 C90.5830374,30.8038911 90.9172198,31.3328611 91.1263121,31.7117838 C91.3421002,32.0834019 91.4464942,32.4124103 91.4464942,32.6912 C91.4464942,33.0701227 91.2517066,33.2630842 90.8755231,33.2630842 C90.408946,33.2630842 89.8102786,32.9483805 89.0652161,32.326582 C88.3271538,31.7044792 87.2966058,30.6678441 85.9805722,29.2166767 C85.7160872,28.937887 85.3679044,28.5160501 84.9153277,27.9584707 C84.4697511,27.4005869 84.1702652,27.1217972 84.0171743,27.1217972 C83.8847797,27.1217972 83.8150822,27.179016 83.8150822,27.2861492 C83.8150822,27.5007199 84.1352643,27.972471 84.7759328,28.7160117 L86.0989665,30.2030931 C87.2966058,31.5258225 88.2574564,32.4839339 88.9748225,33.0701227 C89.6988844,33.6563116 90.3812496,33.949406 91.0356141,33.949406 C91.3767968,33.949406 91.6622823,33.8705779 91.9060711,33.7065303 C92.1428598,33.5488741 92.3306472,33.3273032 92.4630418,33.0488178 C92.6024367,32.7697238 92.6721341,32.4553245 92.6721341,32.1047068 C92.6721341,31.2826424 92.5047386,30.4818828 92.1775563,29.695428 C91.850374,28.9162777 91.3491004,27.944166 90.6667352,26.7857886 C92.205557,28.308784 93.4028919,29.4455521 94.2596529,30.2030931 C94.7469261,31.5258225 95.2411996,32.4839339 95.7287773,33.0701227 C96.2160506,33.6563116 96.8707194,33.949406 97.685175,33.949406 C97.9706605,33.949406 98.2074492,33.8778825 98.3815405,33.7421399 C98.5556319,33.5990927 98.6460256,33.4417409 98.6460256,33.2557796 C98.6460256,33.0055994 98.5279356,32.7411144 98.2981471,32.4623246 C98.0683587,32.1835349 97.6297823,31.797612 96.9961139,31.2969471 C96.3554454,30.8038911 95.8818681,30.4389687 95.5893824,30.2030931 C94.4404401,29.3311144 93.8697734,28.2801745 93.8697734,27.0359689 C93.8697734,26.6999603 93.9741673,26.4284752 94.1689549,26.2065999 C94.3640468,25.9923336 94.6145315,25.8848961 94.9140174,25.8848961 C95.3875947,25.8848961 95.8261711,26.020943 96.2300509,26.2924282 C96.6269306,26.5642177 97.0238103,26.9072265 97.4136898,27.3220632 C97.7965691,27.7295953 98.0263576,27.9368614 98.096055,27.9368614 C98.256146,27.9368614 98.3398438,27.8653379 98.3398438,27.7295953 C98.3398438,27.543634 98.1587523,27.2578441 97.7895689,26.8573122 C97.42069,26.4640848 96.9751134,26.1067713 96.445839,25.7920676 C95.9098688,25.4776683 95.4362915,25.3203165 95.0117155,25.3203165 C93.8487728,25.3203165 93.2638014,25.8778959 93.2638014,26.9930548 C93.2638014,27.3862822 93.4378928,28.072604 93.7930757,29.0450201 C92.1428598,27.6224621 90.0817637,25.3060118 87.6097877,22.0959734 L84.6925394,21.802879 Z M109.083596,30.9752432 L110.796509,33.5488741 L113.553971,33.7205306 L108.965202,26.3067329 C108.338534,25.2557931 107.920653,24.5265571 107.718866,24.1193293 C107.517078,23.7044927 107.412684,23.3185698 107.412684,22.9539518 C107.412684,22.5105057 107.621472,22.2816303 108.046048,22.2816303 C108.763414,22.2816303 110.267235,23.4972265 112.551119,25.9278102 C112.933999,26.3210376 113.198788,26.6001317 113.358879,26.7787884 C113.512274,26.9501406 113.665365,27.1217972 113.804455,27.2934537 C113.950851,27.4578057 114.075941,27.6008529 114.194335,27.7222908 C114.312729,27.8367285 114.403427,27.9012518 114.473125,27.9012518 C114.632911,27.9012518 114.716609,27.844033 114.716609,27.7295953 C114.716609,27.4078914 114.075941,26.6071319 112.794908,25.3203165 C111.492875,23.954673 110.469327,22.9895614 109.738265,22.431982 C109.007203,21.8744025 108.282836,21.5956128 107.572775,21.5956128 C106.430833,21.5956128 105.859862,22.3105441 105.859862,23.7331021 C105.859862,24.0548059 105.929255,24.5980807 106.06865,25.3632306 C104.118948,22.8538188 102.364338,21.5956128 100.80482,21.5956128 C100.066757,21.5956128 99.481786,21.9815357 99.0499054,22.760686 C98.611329,23.5328361 98.3955409,24.6053852 98.3955409,25.9707244 C98.3955409,26.6284368 98.4929347,27.3004539 98.6810264,27.9797756 C98.3118431,27.4078914 98.0193574,27.1217972 97.8035693,27.1217972 C97.6434783,27.1217972 97.5600848,27.179016 97.5600848,27.2934537 C97.5600848,27.5579387 98.2144493,28.3586983 99.5164825,29.695428 C100.874517,31.0969855 102.211247,32.1479253 103.51328,32.8482475 C104.822313,33.5561786 105.998952,33.9064919 107.043501,33.9064919 C107.725866,33.9064919 108.26214,33.7278352 108.658716,33.3702173 C109.048899,33.0129039 109.250687,32.5338482 109.250687,31.9190499 C109.250687,31.6329557 109.19499,31.3255565 109.083596,30.9752432 L109.083596,30.9752432 Z M100.150151,23.690188 C100.150151,22.8109047 100.484333,22.3674586 101.152698,22.3674586 C101.598579,22.3674586 102.16955,22.6106387 102.865611,23.0896944 C103.554977,23.5757503 104.279343,24.2334627 105.024101,25.0701362 C106.180044,26.3782565 107.064197,27.643767 107.670169,28.8590589 C108.275836,30.0743507 108.575322,31.0896809 108.575322,31.9190499 C108.575322,32.3049728 108.442927,32.6266767 108.185443,32.8771613 C107.927958,33.1273416 107.600471,33.2557796 107.210592,33.2557796 C106.555923,33.2557796 105.81086,32.955685 104.982404,32.3478869 C104.153949,31.7403932 103.360189,30.8824148 102.601126,29.7812563 C101.793367,28.6231833 101.187699,27.5007199 100.769819,26.4068659 C100.359243,25.3203165 100.150151,24.4121194 100.150151,23.690188 L100.150151,23.690188 Z" transform="matrix(1 0 0 -1 0 55.588)"/>
    </g>
  </g>
</svg>
