<svg xmlns="http://www.w3.org/2000/svg" width="144" height="48" viewBox="0 0 144 48">
  <g fill="none" fill-rule="evenodd" transform="translate(1.189 .388)">
    <path stroke="#414142" d="M71.0111111,34.2115702 C73.4111111,29.6115702 78.7111111,27.2115702 83.8111111,26.3115702 C88.9111111,25.4115702 94.2111111,25.5115702 99.2111111,24.1115702 C103.211111,22.9115702 106.811111,20.8115702 110.811111,19.6115702 C115.411111,18.2115702 118.711111,19.4115702 123.111111,20.3115702 C127.711111,21.2115702 132.311111,22.0115702 137.011111,22.3115702 M53.0111111,19.0115702 C57.8111111,22.5115702 64.3111111,22.7115702 70.1111111,21.3115702 C75.9111111,20.0115702 81.3111111,17.3115702 87.0111111,15.8115702 C97.1111111,13.1115702 108.111111,14.0115702 117.711111,18.2115702 M10.7111111,16.0115702 C16.0111111,11.6115702 23.5111111,10.4115702 30.4111111,11.4115702 C37.3111111,12.5115702 43.6111111,15.5115702 49.7111111,18.9115702 C55.8111111,22.3115702 61.7111111,25.9115702 68.2111111,28.4115702 M89.4111111,9.11157025 C101.611111,11.5115702 113.311111,16.0115702 123.911111,22.3115702"/>
    <path fill="#AFCE3A" stroke="#414142" stroke-linecap="round" stroke-width=".716" d="M59.0111111,31.6115702 C59.0111111,31.6115702 56.9111111,34.0115702 55.1111111,34.8115702 C53.3111111,35.5115702 52.0111111,35.6115702 52.0111111,35.6115702 L52.3111111,35.0115702 C52.3111111,35.0115702 49.7111111,35.6115702 48.7111111,35.2115702 C47.7111111,34.8115702 47.0111111,34.3115702 46.0111111,34.5115702 C45.0111111,34.6115702 44.4111111,34.2115702 44.4111111,34.2115702 L44.8111111,33.8115702 C44.8111111,33.8115702 42.2111111,33.8115702 42.0111111,33.4115702 L42.5111111,33.0115702 C42.5111111,33.0115702 41.3111111,32.5115702 40.9111111,31.8115702 C40.5111111,31.0115702 40.2111111,30.1115702 39.6111111,29.4115702 L40.2111111,29.4115702 C40.2111111,29.4115702 39.6111111,28.1115702 38.9111111,28.0115702 C38.9111111,28.0115702 36.3111111,26.5115702 35.5111111,26.7115702 C34.7111111,26.9115702 33.7111111,25.3115702 33.7111111,25.3115702 L34.4111111,25.2115702 C34.4111111,25.2115702 32.8111111,23.9115702 32.0111111,23.9115702 C31.2111111,23.9115702 31.2111111,22.7115702 30.1111111,22.9115702 L30.6111111,22.8115702 C30.6111111,22.8115702 28.2111111,21.5115702 26.8111111,22.4115702 C25.4111111,23.3115702 29.6111111,20.3115702 30.6111111,20.2115702 C31.6111111,20.1115702 33.2111111,19.3115702 33.4111111,18.8115702 C33.6111111,18.3115702 35.1111111,17.1115702 35.7111111,17.0115702 C36.2111111,16.8115702 37.9111111,16.4115702 37.9111111,16.1115702 C37.9111111,15.8115702 38.7111111,15.4115702 39.2111111,15.4115702 C39.7111111,15.5115702 40.5111111,15.5115702 40.9111111,15.3115702 C41.4111111,15.1115702 42.1111111,14.4115702 42.5111111,14.4115702 C43.0111111,14.4115702 42.0111111,13.9115702 42.0111111,13.9115702 L43.1111111,13.5115702 L42.5111111,13.2115702 C42.5111111,13.2115702 44.1111111,12.0115702 44.8111111,12.0115702 C45.5111111,11.9115702 47.0111111,12.1115702 47.3111111,11.6115702 C47.6111111,11.1115702 48.5111111,10.8115702 49.2111111,10.7115702 C49.9111111,10.6115702 51.1111111,10.9115702 51.1111111,10.9115702 L50.8111111,10.4115702 C50.8111111,10.4115702 53.0111111,10.0115702 53.5111111,10.3115702 C54.0111111,10.6115702 55.5111111,10.9115702 55.4111111,10.6115702 C55.3111111,10.4115702 56.2111111,10.3115702 56.8111111,10.4115702 C57.4111111,10.6115702 65.7111111,13.1115702 61.6111111,21.2115702 C59.3111111,25.0115702 66.1111111,21.4115702 59.0111111,31.6115702 L59.0111111,31.6115702 Z"/>
    <path fill="#AFCE3A" stroke="#414142" stroke-width=".716" d="M54.0111111,33.3115702 C54.0111111,33.3115702 59.5111111,23.6115702 55.8111111,26.6115702 C54.7111111,27.5115702 54.4111111,30.5115702 54.4111111,29.5115702 C54.4111111,28.6115702 54.2111111,27.5115702 53.6111111,27.9115702 C53.1111111,28.3115702 51.3111111,29.5115702 51.1111111,29.9115702 C51.0111111,30.3115702 50.5111111,30.8115702 50.5111111,30.3115702 C50.5111111,29.8115702 49.7111111,29.1115702 49.2111111,29.4115702 C48.7111111,29.7115702 47.5111111,29.8115702 47.5111111,29.6115702 C47.5111111,29.4115702 48.6111111,29.1115702 49.3111111,28.6115702 C49.9111111,28.2115702 53.7111111,26.4115702 54.1111111,25.8115702 C54.5111111,25.2115702 55.8111111,23.1115702 55.2111111,23.0115702 C54.6111111,22.9115702 53.5111111,24.0115702 53.1111111,24.6115702 C52.7111111,25.2115702 51.9111111,25.8115702 51.8111111,25.6115702 C51.7111111,25.4115702 54.9111111,22.2115702 53.8111111,21.6115702 C52.7111111,20.9115702 52.0111111,22.1115702 51.5111111,22.6115702 C51.0111111,23.1115702 49.9111111,24.7115702 49.5111111,24.6115702 C49.1111111,24.6115702 51.9111111,21.4115702 51.5111111,21.1115702 C51.0111111,20.8115702 50.1111111,20.1115702 49.3111111,20.6115702 C48.5111111,21.2115702 46.3111111,23.1115702 46.2111111,22.9115702 C46.1111111,22.7115702 48.8111111,20.2115702 48.0111111,20.3115702 C47.2111111,20.4115702 44.2111111,20.0115702 43.3111111,20.6115702 C42.4111111,21.2115702 41.5111111,22.3115702 41.2111111,22.2115702 C41.0111111,22.2115702 42.8111111,20.5115702 42.3111111,20.5115702 C41.8111111,20.5115702 38.8111111,20.5115702 37.8111111,21.1115702 C36.8111111,21.6115702 35.7111111,22.1115702 35.6111111,22.0115702 C35.5111111,21.8115702 37.6111111,20.7115702 36.6111111,20.8115702 C35.6111111,20.9115702 33.2111111,20.8115702 33.2111111,20.7115702 C33.2111111,20.5115702 37.2111111,20.2115702 37.4111111,20.1115702 C37.6111111,20.0115702 37.9111111,19.8115702 37.5111111,19.3115702 C37.1111111,18.8115702 37.4111111,18.8115702 37.9111111,19.2115702 C38.4111111,19.6115702 41.0111111,19.8115702 41.5111111,19.7115702 C42.1111111,19.6115702 42.5111111,19.8115702 42.4111111,19.3115702 C42.3111111,18.9115702 41.6111111,17.9115702 42.0111111,18.0115702 C42.4111111,18.1115702 43.8111111,19.7115702 44.3111111,19.7115702 C44.8111111,19.6115702 48.2111111,19.5115702 48.2111111,19.5115702 C48.2111111,19.5115702 48.1111111,18.2115702 47.6111111,17.8115702 C47.1111111,17.4115702 47.7111111,17.2115702 48.1111111,17.7115702 C48.5111111,18.3115702 49.7111111,19.7115702 50.0111111,19.6115702 C50.3111111,19.6115702 52.0111111,19.8115702 52.2111111,20.0115702 C52.4111111,20.2115702 52.0111111,18.4115702 51.6111111,18.1115702 C51.2111111,17.7115702 51.5111111,17.2115702 51.9111111,17.9115702 C52.3111111,18.6115702 53.3111111,20.0115702 53.7111111,20.2115702 C54.1111111,20.4115702 55.0111111,20.6115702 54.7111111,20.2115702 C54.5111111,19.8115702 54.2111111,18.2115702 53.8111111,17.8115702 C53.4111111,17.5115702 54.9111111,18.2115702 55.2111111,19.0115702 C55.5111111,19.8115702 55.8111111,20.2115702 56.1111111,20.0115702 C56.4111111,19.8115702 56.5111111,19.1115702 56.3111111,18.7115702 C56.0111111,18.4115702 54.3111111,15.2115702 53.9111111,15.0115702 C53.4111111,14.7115702 52.2111111,13.9115702 52.6111111,14.0115702 C53.1111111,14.1115702 53.7111111,14.2115702 54.2111111,14.5115702 C54.7111111,14.8115702 57.5111111,17.5115702 57.5111111,17.8115702 C57.6111111,20.8115702 68.3111111,26.5115702 54.0111111,33.3115702 L54.0111111,33.3115702 Z"/>
    <path stroke="#414142" stroke-linecap="round" stroke-width=".716" d="M57.0111111,21.4115702 C57.0111111,21.4115702 58.1111111,20.3115702 56.6111111,17.6115702 C55.2111111,14.9115702 52.3111111,13.6115702 51.6111111,13.4115702 M56.9111111,21.8115702 C56.9111111,21.8115702 57.5111111,23.1115702 56.7111111,24.3115702 C55.9111111,25.5115702 54.2111111,28.5115702 44.7111111,30.4115702"/>
    <path stroke="#414142" stroke-linecap="round" stroke-width=".716" d="M60.5111111,22.3115702 C60.5111111,22.3115702 58.0111111,21.8115702 56.8111111,21.4115702 C55.3111111,20.9115702 53.6111111,20.7115702 53.2111111,20.5115702 C52.4111111,20.1115702 49.2111111,19.7115702 47.9111111,19.7115702 C46.6111111,19.7115702 39.3111111,20.2115702 39.0111111,20.2115702 C38.7111111,20.2115702 29.8111111,20.9115702 28.0111111,21.6115702"/>
    <path stroke="#414142" stroke-linecap="round" stroke-width=".716" d="M55.2111111,21.2115702 C55.2111111,21.2115702 55.8111111,21.8115702 53.7111111,23.9115702 C53.0111111,24.6115702 51.8111111,26.1115702 49.7111111,27.2115702 M52.4111111,20.3115702 C52.4111111,20.3115702 52.7111111,20.6115702 52.6111111,21.0115702 C52.4111111,21.3115702 51.8111111,23.5115702 46.9111111,27.0115702 M48.7111111,19.8115702 C48.7111111,19.8115702 49.4111111,20.0115702 48.8111111,20.8115702 C48.2111111,21.5115702 44.1111111,24.9115702 42.3111111,25.7115702 M55.3111111,21.2115702 C55.3111111,21.2115702 55.8111111,21.0115702 55.4111111,20.2115702 C55.1111111,19.4115702 53.8111111,17.1115702 52.6111111,16.2115702 M52.7111111,20.4115702 C52.7111111,20.4115702 52.9111111,19.7115702 52.6111111,19.3115702 C52.3111111,18.9115702 51.4111111,17.2115702 51.1111111,16.9115702 C50.9111111,16.7115702 49.5111111,15.5115702 48.9111111,15.4115702 M48.9111111,19.8115702 C48.9111111,19.8115702 48.7111111,19.1115702 48.5111111,18.6115702 C48.2111111,18.0115702 47.5111111,17.3115702 47.1111111,16.9115702 C46.6111111,16.5115702 45.2111111,15.8115702 44.6111111,15.6115702 M43.4111111,19.9115702 C43.4111111,19.9115702 43.2111111,19.7115702 43.0111111,19.4115702 C42.8111111,19.1115702 41.9111111,17.6115702 41.2111111,17.3115702 C40.4111111,17.0115702 38.5111111,16.6115702 38.3111111,16.6115702 M39.5111111,20.2115702 C39.5111111,20.2115702 38.4111111,19.8115702 38.0111111,19.4115702 C37.6111111,19.1115702 36.2111111,17.8115702 35.1111111,18.1115702 M38.5111111,20.3115702 C38.5111111,20.3115702 37.2111111,21.2115702 36.8111111,21.4115702 C36.5111111,21.7115702 33.7111111,23.0115702 32.3111111,23.2115702 M44.3111111,19.9115702 C44.3111111,19.9115702 43.4111111,20.3115702 43.1111111,20.6115702 C42.8111111,20.9115702 40.3111111,23.5115702 38.1111111,24.1115702 C38.1111111,24.1115702 35.7111111,24.9115702 35.3111111,25.0115702 M49.2111111,29.3115702 C49.2111111,29.3115702 49.1111111,30.0115702 48.6111111,30.6115702 C48.0111111,31.2115702 46.4111111,32.5115702 46.1111111,32.7115702 M51.5111111,28.5115702 C51.5111111,28.5115702 51.8111111,28.5115702 51.6111111,28.8115702 C51.5111111,29.1115702 50.9111111,30.2115702 50.8111111,30.9115702 C50.7111111,31.6115702 49.1111111,34.0115702 48.1111111,34.4115702 M55.2111111,26.1115702 C55.2111111,26.1115702 54.8111111,26.9115702 54.9111111,27.3115702 C55.0111111,27.7115702 55.0111111,29.1115702 54.6111111,29.7115702 C54.2111111,30.3115702 53.5111111,31.8115702 52.4111111,32.6115702 M52.9111111,13.9115702 C52.9111111,13.9115702 52.4111111,12.7115702 52.5111111,12.4115702 C52.6111111,12.1115702 52.3111111,11.3115702 51.9111111,11.3115702 M54.9111111,15.3115702 C54.9111111,15.3115702 54.7111111,14.5115702 54.7111111,14.1115702 C54.8111111,13.7115702 54.9111111,12.5115702 54.3111111,12.1115702"/>
    <path fill="#FFF" stroke="#414142" stroke-width=".716" d="M56.5111111,32.1115702 C56.5111111,32.1115702 57.2111111,32.1115702 57.6111111,31.9115702 C58.0111111,31.7115702 59.8111111,30.1115702 59.1111111,30.6115702 C58.4111111,31.0115702 56.8111111,32.0115702 56.5111111,32.1115702 Z"/>
    <path fill="#AFCE3A" stroke="#414142" stroke-linecap="round" stroke-width=".757" d="M25.1111111,13.4115702 C25.1111111,13.4115702 25.9111111,14.5115702 25.4111111,15.5115702 C25.0111111,16.4115702 24.3111111,17.0115702 24.3111111,17.0115702 L24.0111111,16.8115702 C24.0111111,16.8115702 23.0111111,18.1115702 22.2111111,18.5115702 C21.4111111,18.9115702 20.6111111,19.2115702 20.2111111,19.7115702 C19.8111111,20.2115702 19.1111111,20.4115702 19.1111111,20.4115702 L19.0111111,20.2115702 C19.0111111,20.2115702 17.6111111,21.4115702 17.1111111,21.5115702 L17.1111111,21.2115702 C17.1111111,21.2115702 16.1111111,21.7115702 15.3111111,21.8115702 C14.5111111,21.9115702 13.6111111,22.0115702 12.7111111,22.2115702 L13.0111111,21.9115702 C13.0111111,21.9115702 11.7111111,22.1115702 11.2111111,22.4115702 C11.2111111,22.4115702 8.61111111,23.5115702 8.31111111,23.9115702 C8.01111111,24.3115702 6.21111111,24.6115702 6.21111111,24.6115702 L6.51111111,24.3115702 C6.51111111,24.3115702 4.61111111,25.0115702 4.11111111,25.3115702 C3.71111111,25.6115702 2.71111111,25.6115702 2.21111111,26.1115702 L2.41111111,25.9115702 C2.41111111,25.9115702 0.0111111111,26.9115702 0.0111111111,27.6115702 C0.0111111111,28.3115702 -0.0888888889,26.1115702 0.311111111,25.7115702 C0.811111111,25.3115702 1.01111111,24.4115702 0.811111111,24.3115702 C0.611111111,24.2115702 0.411111111,23.4115702 0.611111111,23.1115702 C0.811111111,22.9115702 1.31111111,22.1115702 1.01111111,22.0115702 C0.811111111,22.0115702 0.911111111,21.6115702 1.21111111,21.4115702 C1.51111111,21.2115702 2.01111111,20.8115702 2.11111111,20.6115702 C2.21111111,20.4115702 2.01111111,20.0115702 2.31111111,19.8115702 C2.51111111,19.6115702 1.61111111,20.0115702 1.61111111,20.0115702 L1.91111111,19.5115702 L1.31111111,19.7115702 C1.31111111,19.7115702 1.31111111,18.9115702 1.61111111,18.5115702 C7.81111111,12.6115702 5.31111111,14.5115702 14.9111111,9.51157025 C16.9111111,8.51157025 21.1111111,9.31157025 25.1111111,13.4115702 L25.1111111,13.4115702 Z"/>
    <path stroke="#414142" stroke-linecap="round" stroke-width=".792" d="M20.8111111,10.3115702 C20.8111111,10.3115702 16.1111111,10.5115702 13.1111111,11.7115702 C9.01111111,13.3115702 6.31111111,16.1115702 5.91111111,16.9115702 C5.11111111,18.2115702 1.91111111,25.4115702 1.31111111,25.9115702"/>
    <path stroke="#414142" stroke-linecap="round" d="M13.9111111,11.5115702 C13.9111111,11.5115702 19.9111111,14.8115702 22.3111111,17.0115702 M5.31111111,17.5115702 C5.31111111,17.5115702 2.71111111,20.4115702 1.71111111,21.6115702 M5.81111111,17.4115702 C5.81111111,17.4115702 8.41111111,20.4115702 8.21111111,21.3115702 C8.01111111,22.2115702 7.71111111,22.5115702 7.71111111,22.5115702 M9.11111111,13.9115702 C9.11111111,13.9115702 10.9111111,18.1115702 11.2111111,18.7115702 C11.5111111,19.3115702 11.7111111,20.8115702 11.3111111,21.3115702"/>
    <path fill="#AFCE3A" stroke="#414142" stroke-linecap="round" stroke-width=".716" d="M94.3111111,18.4115702 C94.3111111,18.4115702 92.6111111,20.5115702 91.0111111,21.2115702 C89.4111111,21.8115702 88.3111111,21.9115702 88.3111111,21.9115702 L88.5111111,21.4115702 C88.5111111,21.4115702 86.2111111,22.0115702 85.4111111,21.6115702 C84.6111111,21.3115702 83.9111111,20.9115702 83.1111111,21.0115702 C82.3111111,21.1115702 81.7111111,20.8115702 81.7111111,20.8115702 L82.0111111,20.5115702 C82.0111111,20.5115702 79.8111111,20.5115702 79.6111111,20.2115702 L80.1111111,19.9115702 C80.1111111,19.9115702 79.1111111,19.5115702 78.7111111,18.9115702 C78.3111111,18.2115702 78.1111111,17.5115702 77.5111111,16.9115702 L78.0111111,16.9115702 C78.0111111,16.9115702 77.5111111,15.8115702 76.9111111,15.7115702 C76.9111111,15.7115702 74.6111111,14.4115702 73.9111111,14.6115702 C73.2111111,14.8115702 72.3111111,13.4115702 72.3111111,13.4115702 L72.9111111,13.3115702 C72.9111111,13.3115702 71.5111111,12.2115702 70.8111111,12.2115702 C70.1111111,12.2115702 70.1111111,11.1115702 69.1111111,11.4115702 L69.5111111,11.3115702 C69.5111111,11.3115702 67.4111111,10.2115702 66.2111111,11.0115702 C65.0111111,11.8115702 68.6111111,9.11157025 69.5111111,9.01157025 C70.3111111,8.91157025 71.8111111,8.21157025 71.9111111,7.81157025 C72.1111111,7.41157025 73.4111111,6.31157025 73.8111111,6.21157025 C74.3111111,6.11157025 75.7111111,5.61157025 75.7111111,5.41157025 C75.7111111,5.11157025 76.4111111,4.81157025 76.8111111,4.81157025 C77.2111111,4.91157025 77.9111111,4.91157025 78.3111111,4.71157025 C78.7111111,4.51157025 79.3111111,3.91157025 79.7111111,3.91157025 C80.1111111,3.91157025 79.3111111,3.41157025 79.3111111,3.41157025 L80.3111111,3.01157025 L79.7111111,2.61157025 C79.7111111,2.61157025 81.0111111,1.61157025 81.7111111,1.51157025 C82.3111111,1.41157025 83.6111111,1.61157025 83.8111111,1.11157025 C84.1111111,0.711570248 84.8111111,0.411570248 85.4111111,0.311570248 C86.0111111,0.211570248 87.0111111,0.511570248 87.0111111,0.511570248 L86.8111111,0.211570248 C86.8111111,0.211570248 88.7111111,-0.188429752 89.1111111,0.111570248 C89.5111111,0.311570248 90.8111111,0.611570248 90.7111111,0.411570248 C90.6111111,0.211570248 91.4111111,0.111570248 91.9111111,0.211570248 C92.4111111,0.311570248 99.6111111,2.51157025 96.2111111,9.41157025 C94.5111111,12.7115702 100.311111,9.61157025 94.3111111,18.4115702 L94.3111111,18.4115702 Z"/>
    <path fill="#AFCE3A" stroke="#414142" stroke-width=".716" d="M90.1111111,19.9115702 C90.1111111,19.9115702 94.7111111,11.5115702 91.6111111,14.1115702 C90.7111111,14.9115702 90.4111111,17.4115702 90.4111111,16.6115702 C90.4111111,15.8115702 90.2111111,14.9115702 89.7111111,15.2115702 C89.2111111,15.5115702 87.7111111,16.6115702 87.6111111,16.9115702 C87.5111111,17.3115702 87.1111111,17.7115702 87.1111111,17.3115702 C87.1111111,16.9115702 86.4111111,16.3115702 86.0111111,16.5115702 C85.6111111,16.8115702 84.5111111,16.9115702 84.6111111,16.7115702 C84.6111111,16.5115702 85.6111111,16.2115702 86.1111111,15.8115702 C86.7111111,15.4115702 89.8111111,13.9115702 90.2111111,13.3115702 C90.5111111,12.7115702 91.6111111,11.0115702 91.1111111,10.9115702 C90.6111111,10.8115702 89.7111111,11.8115702 89.3111111,12.3115702 C88.9111111,12.8115702 88.3111111,13.4115702 88.2111111,13.2115702 C88.1111111,13.0115702 90.8111111,10.3115702 89.9111111,9.71157025 C89.0111111,9.11157025 88.4111111,10.1115702 87.9111111,10.6115702 C87.5111111,11.1115702 86.5111111,12.4115702 86.2111111,12.4115702 C85.8111111,12.4115702 88.3111111,9.61157025 87.9111111,9.41157025 C87.5111111,9.21157025 86.7111111,8.61157025 86.0111111,9.01157025 C85.3111111,9.51157025 83.5111111,11.2115702 83.3111111,11.0115702 C83.2111111,10.8115702 85.5111111,8.61157025 84.8111111,8.71157025 C84.1111111,8.81157025 81.5111111,8.41157025 80.7111111,9.01157025 C79.9111111,9.51157025 79.2111111,10.5115702 78.9111111,10.4115702 C78.7111111,10.4115702 80.3111111,8.91157025 79.8111111,8.91157025 C79.4111111,8.91157025 76.8111111,8.91157025 75.9111111,9.41157025 C75.1111111,9.91157025 74.1111111,10.3115702 74.0111111,10.2115702 C73.9111111,10.0115702 75.7111111,9.01157025 74.8111111,9.21157025 C73.9111111,9.31157025 71.9111111,9.31157025 71.9111111,9.11157025 C71.9111111,9.01157025 75.3111111,8.61157025 75.5111111,8.51157025 C75.7111111,8.41157025 75.9111111,8.21157025 75.6111111,7.81157025 C75.3111111,7.31157025 75.5111111,7.31157025 76.0111111,7.71157025 C76.5111111,8.01157025 78.6111111,8.21157025 79.1111111,8.11157025 C79.6111111,8.01157025 80.0111111,8.11157025 79.9111111,7.81157025 C79.8111111,7.41157025 79.2111111,6.61157025 79.6111111,6.71157025 C80.0111111,6.81157025 81.2111111,8.21157025 81.6111111,8.11157025 C82.0111111,8.01157025 84.9111111,7.91157025 84.9111111,7.91157025 C84.9111111,7.91157025 84.8111111,6.81157025 84.3111111,6.41157025 C83.8111111,6.11157025 84.4111111,5.91157025 84.7111111,6.31157025 C85.1111111,6.81157025 86.1111111,8.01157025 86.4111111,7.91157025 C86.7111111,7.91157025 88.1111111,8.11157025 88.3111111,8.21157025 C88.5111111,8.31157025 88.1111111,6.81157025 87.8111111,6.61157025 C87.4111111,6.31157025 87.7111111,5.81157025 88.1111111,6.41157025 C88.5111111,7.01157025 89.4111111,8.21157025 89.7111111,8.41157025 C90.1111111,8.61157025 90.8111111,8.71157025 90.6111111,8.41157025 C90.4111111,8.11157025 90.2111111,6.71157025 89.8111111,6.41157025 C89.4111111,6.11157025 90.7111111,6.81157025 91.0111111,7.41157025 C91.3111111,8.11157025 91.5111111,8.41157025 91.8111111,8.31157025 C92.0111111,8.11157025 92.2111111,7.51157025 91.9111111,7.21157025 C91.7111111,6.91157025 90.2111111,4.21157025 89.8111111,4.01157025 C89.4111111,3.81157025 88.3111111,3.11157025 88.7111111,3.11157025 C89.1111111,3.11157025 89.6111111,3.31157025 90.1111111,3.51157025 C90.5111111,3.81157025 93.0111111,6.01157025 93.0111111,6.31157025 C93.0111111,9.11157025 102.311111,13.9115702 90.1111111,19.9115702 L90.1111111,19.9115702 Z"/>
    <path stroke="#414142" stroke-linecap="round" stroke-width=".716" d="M92.5111111,9.61157025 C92.5111111,9.61157025 93.4111111,8.61157025 92.1111111,6.31157025 C90.8111111,4.01157025 88.4111111,2.91157025 87.8111111,2.81157025 M92.4111111,10.0115702 C92.4111111,10.0115702 92.9111111,11.1115702 92.3111111,12.1115702 C91.7111111,13.1115702 90.2111111,15.7115702 82.0111111,17.5115702"/>
    <path stroke="#414142" stroke-linecap="round" stroke-width=".716" d="M95.6111111,10.4115702 C95.6111111,10.4115702 93.4111111,10.0115702 92.4111111,9.71157025 C91.1111111,9.31157025 89.6111111,9.11157025 89.3111111,9.01157025 C88.6111111,8.61157025 85.8111111,8.31157025 84.7111111,8.41157025 C83.6111111,8.41157025 77.3111111,8.91157025 77.1111111,9.01157025 C76.9111111,9.01157025 69.2111111,9.71157025 67.7111111,10.3115702"/>
    <path stroke="#414142" stroke-linecap="round" stroke-width=".716" d="M91.0111111,9.51157025 C91.0111111,9.51157025 91.5111111,10.0115702 89.7111111,11.9115702 C89.1111111,12.5115702 88.1111111,13.8115702 86.3111111,14.8115702 M88.5111111,8.71157025 C88.5111111,8.71157025 88.8111111,9.01157025 88.6111111,9.31157025 C88.4111111,9.61157025 87.9111111,11.5115702 83.7111111,14.5115702 M85.4111111,8.41157025 C85.4111111,8.41157025 86.0111111,8.61157025 85.5111111,9.21157025 C85.0111111,9.81157025 81.5111111,12.8115702 79.9111111,13.5115702 M91.1111111,9.41157025 C91.1111111,9.41157025 91.5111111,9.21157025 91.2111111,8.51157025 C90.9111111,7.81157025 89.8111111,5.81157025 88.7111111,5.11157025 M88.8111111,8.81157025 C88.8111111,8.81157025 88.9111111,8.21157025 88.7111111,7.81157025 C88.5111111,7.41157025 87.6111111,6.01157025 87.4111111,5.81157025 C87.2111111,5.61157025 86.0111111,4.71157025 85.5111111,4.61157025 M85.5111111,8.31157025 C85.5111111,8.31157025 85.3111111,7.71157025 85.1111111,7.31157025 C84.9111111,6.81157025 84.3111111,6.21157025 83.8111111,5.81157025 C83.4111111,5.41157025 82.2111111,4.91157025 81.6111111,4.71157025 M80.8111111,8.51157025 C80.8111111,8.51157025 80.6111111,8.31157025 80.5111111,8.11157025 C80.4111111,7.91157025 79.6111111,6.61157025 78.9111111,6.31157025 C78.2111111,6.01157025 76.6111111,5.71157025 76.4111111,5.81157025 M77.5111111,8.81157025 C77.5111111,8.81157025 76.5111111,8.51157025 76.2111111,8.21157025 C75.9111111,7.91157025 74.6111111,6.81157025 73.7111111,7.11157025 M76.6111111,8.91157025 C76.6111111,8.91157025 75.5111111,9.71157025 75.2111111,9.91157025 C74.9111111,10.1115702 72.6111111,11.3115702 71.4111111,11.5115702 M81.6111111,8.51157025 C81.6111111,8.51157025 80.8111111,8.91157025 80.6111111,9.11157025 C80.3111111,9.41157025 78.2111111,11.7115702 76.4111111,12.2115702 L74.0111111,13.0115702 M85.9111111,16.5115702 C85.9111111,16.5115702 85.9111111,17.1115702 85.4111111,17.6115702 C84.9111111,18.1115702 83.6111111,19.3115702 83.2111111,19.5115702 M87.8111111,15.8115702 C87.8111111,15.8115702 88.0111111,15.8115702 87.9111111,16.1115702 C87.8111111,16.4115702 87.3111111,17.3115702 87.2111111,17.9115702 C87.1111111,18.5115702 85.8111111,20.6115702 84.9111111,20.9115702 M91.0111111,13.7115702 C91.0111111,13.7115702 90.7111111,14.4115702 90.8111111,14.8115702 C90.9111111,15.1115702 90.9111111,16.4115702 90.6111111,16.9115702 C90.3111111,17.4115702 89.6111111,18.7115702 88.8111111,19.4115702 M88.9111111,3.21157025 C88.9111111,3.21157025 88.4111111,2.21157025 88.5111111,1.91157025 C88.6111111,1.61157025 88.3111111,1.01157025 87.9111111,1.01157025 M90.6111111,4.41157025 C90.6111111,4.41157025 90.4111111,3.71157025 90.5111111,3.41157025 C90.6111111,3.11157025 90.7111111,2.11157025 90.1111111,1.71157025"/>
    <path fill="#FFF" stroke="#414142" stroke-width=".716" d="M92.2111111,18.8115702 C92.2111111,18.8115702 92.8111111,18.8115702 93.1111111,18.6115702 C93.4111111,18.4115702 94.9111111,17.1115702 94.4111111,17.4115702 C93.8111111,17.9115702 92.5111111,18.7115702 92.2111111,18.8115702 L92.2111111,18.8115702 Z"/>
    <path fill="#AFCE3A" stroke="#414142" stroke-linecap="round" stroke-width=".76" d="M86.5111111,35.6115702 C86.5111111,35.6115702 86.7111111,38.8115702 85.9111111,40.5115702 C85.1111111,42.1115702 84.3111111,43.0115702 84.3111111,43.0115702 L84.1111111,42.4115702 C84.1111111,42.4115702 82.7111111,44.4115702 81.8111111,44.6115702 C80.9111111,44.8115702 80.1111111,44.8115702 79.5111111,45.5115702 C78.9111111,46.2115702 78.2111111,46.2115702 78.2111111,46.2115702 L78.2111111,45.7115702 C78.2111111,45.7115702 76.4111111,47.1115702 76.0111111,46.9115702 L76.1111111,46.3115702 C76.1111111,46.3115702 75.0111111,46.5115702 74.2111111,46.1115702 C73.4111111,45.7115702 72.7111111,45.0115702 71.8111111,44.8115702 L72.2111111,44.5115702 C72.2111111,44.5115702 71.0111111,43.7115702 70.4111111,44.0115702 C70.4111111,44.0115702 67.7111111,44.2115702 67.3111111,44.8115702 C66.9111111,45.4115702 65.2111111,44.7115702 65.2111111,44.7115702 L65.6111111,44.2115702 C65.6111111,44.2115702 63.7111111,44.0115702 63.1111111,44.4115702 C62.6111111,44.8115702 61.8111111,43.8115702 61.2111111,44.6115702 L61.5111111,44.2115702 C61.5111111,44.2115702 59.0111111,44.4115702 58.7111111,46.0115702 C58.4111111,47.6115702 59.3111111,42.6115702 59.9111111,41.9115702 C60.5111111,41.2115702 61.1111111,39.6115702 60.9111111,39.2115702 C60.7111111,38.7115702 61.0111111,36.8115702 61.3111111,36.4115702 C61.6111111,36.0115702 62.4111111,34.6115702 62.2111111,34.4115702 C62.0111111,34.1115702 62.3111111,33.3115702 62.7111111,33.1115702 C63.1111111,32.9115702 63.6111111,32.5115702 63.8111111,32.0115702 C64.0111111,31.6115702 64.0111111,30.6115702 64.3111111,30.4115702 C64.6111111,30.1115702 63.6111111,30.2115702 63.6111111,30.2115702 L64.1111111,29.2115702 L63.5111111,29.3115702 C63.5111111,29.3115702 63.8111111,27.4115702 64.3111111,27.0115702 C64.7111111,26.5115702 65.8111111,25.9115702 65.7111111,25.3115702 C65.6111111,24.7115702 66.0111111,23.9115702 66.4111111,23.5115702 C66.9111111,23.0115702 67.8111111,22.6115702 67.8111111,22.6115702 L67.3111111,22.4115702 C67.3111111,22.4115702 68.5111111,20.8115702 69.0111111,20.8115702 C69.5111111,20.8115702 70.7111111,20.2115702 70.5111111,20.0115702 C70.3111111,19.9115702 70.8111111,19.2115702 71.3111111,19.1115702 C71.8111111,18.9115702 79.0111111,16.4115702 81.3111111,25.6115702 C82.5111111,29.8115702 84.9111111,23.0115702 86.5111111,35.6115702 L86.5111111,35.6115702 Z"/>
    <path fill="#AFCE3A" stroke="#414142" stroke-width=".76" d="M84.3111111,39.9115702 C84.3111111,39.9115702 81.8111111,28.5115702 81.3111111,33.2115702 C81.1111111,34.5115702 82.8111111,37.3115702 82.2111111,36.5115702 C81.6111111,35.7115702 80.8111111,34.9115702 80.7111111,35.6115702 C80.6111111,36.2115702 80.1111111,38.2115702 80.3111111,38.7115702 C80.5111111,39.1115702 80.5111111,39.8115702 80.2111111,39.4115702 C79.9111111,39.0115702 78.9111111,38.8115702 78.8111111,39.3115702 C78.6111111,39.8115702 77.9111111,40.6115702 77.8111111,40.4115702 C77.7111111,40.2115702 78.2111111,39.3115702 78.4111111,38.6115702 C78.6111111,37.9115702 79.9111111,34.3115702 79.8111111,33.5115702 C79.7111111,32.7115702 79.2111111,30.3115702 78.8111111,30.5115702 C78.4111111,30.7115702 78.3111111,32.3115702 78.4111111,33.0115702 C78.5111111,33.7115702 78.4111111,34.7115702 78.2111111,34.6115702 C78.0111111,34.5115702 78.1111111,30.0115702 77.0111111,30.0115702 C75.9111111,30.0115702 76.1111111,31.4115702 76.1111111,32.2115702 C76.1111111,32.9115702 76.3111111,34.9115702 76.0111111,35.0115702 C75.7111111,35.2115702 75.6111111,30.9115702 75.1111111,30.9115702 C74.6111111,30.9115702 73.5111111,30.8115702 73.3111111,31.7115702 C73.1111111,32.6115702 72.9111111,35.5115702 72.7111111,35.4115702 C72.5111111,35.3115702 72.8111111,31.6115702 72.2111111,32.2115702 C71.7111111,32.7115702 69.4111111,34.0115702 69.2111111,35.1115702 C69.0111111,36.1115702 69.1111111,37.5115702 68.9111111,37.7115702 C68.7111111,37.8115702 68.9111111,35.3115702 68.5111111,35.6115702 C68.1111111,35.9115702 66.1111111,37.6115702 65.8111111,38.6115702 C65.5111111,39.6115702 65.0111111,40.7115702 64.9111111,40.6115702 C64.7111111,40.5115702 65.4111111,38.3115702 64.8111111,39.0115702 C64.2111111,39.7115702 62.6111111,40.9115702 62.5111111,40.8115702 C62.4111111,40.7115702 64.9111111,38.1115702 64.9111111,37.9115702 C65.0111111,37.7115702 65.1111111,37.4115702 64.5111111,37.1115702 C63.9111111,36.9115702 64.1111111,36.7115702 64.7111111,36.7115702 C65.3111111,36.7115702 67.2111111,35.5115702 67.5111111,35.1115702 C67.8111111,34.7115702 68.2111111,34.6115702 67.9111111,34.3115702 C67.6111111,34.0115702 66.4111111,33.5115702 66.8111111,33.4115702 C67.2111111,33.3115702 69.1111111,33.8115702 69.4111111,33.5115702 C69.7111111,33.2115702 71.9111111,31.2115702 71.9111111,31.2115702 C71.9111111,31.2115702 71.0111111,30.1115702 70.4111111,30.1115702 C69.8111111,30.1115702 70.0111111,29.5115702 70.7111111,29.8115702 C71.3111111,30.1115702 73.0111111,30.6115702 73.2111111,30.4115702 C73.4111111,30.2115702 74.7111111,29.5115702 75.0111111,29.5115702 C75.3111111,29.5115702 73.9111111,28.3115702 73.4111111,28.2115702 C72.9111111,28.1115702 72.7111111,27.5115702 73.5111111,27.8115702 C74.2111111,28.1115702 75.8111111,28.8115702 76.2111111,28.8115702 C76.6111111,28.7115702 77.3111111,28.4115702 76.9111111,28.2115702 C76.5111111,28.0115702 75.3111111,26.8115702 74.8111111,26.7115702 C74.3111111,26.7115702 75.8111111,26.5115702 76.5111111,27.0115702 C77.2111111,27.5115702 77.7111111,27.7115702 77.8111111,27.4115702 C77.9111111,27.1115702 77.5111111,26.4115702 77.1111111,26.2115702 C76.7111111,26.1115702 73.6111111,24.4115702 73.1111111,24.4115702 C72.6111111,24.4115702 71.3111111,24.5115702 71.6111111,24.2115702 C72.0111111,24.0115702 72.5111111,23.8115702 73.0111111,23.8115702 C73.5111111,23.8115702 77.1111111,24.5115702 77.3111111,24.7115702 C78.8111111,27.3115702 89.6111111,26.1115702 84.3111111,39.9115702 L84.3111111,39.9115702 Z"/>
    <path stroke="#414142" stroke-linecap="round" stroke-width=".76" d="M78.7111111,28.1115702 C78.7111111,28.1115702 78.7111111,26.5115702 76.0111111,25.1115702 C73.3111111,23.6115702 70.6111111,24.1115702 70.0111111,24.4115702 M78.9111111,28.4115702 C78.9111111,28.4115702 80.2111111,29.2115702 80.4111111,30.6115702 C80.6111111,32.0115702 81.3111111,35.6115702 76.2111111,42.5115702"/>
    <path stroke="#414142" stroke-linecap="round" stroke-width=".76" d="M81.7111111,26.9115702 C81.7111111,26.9115702 79.7111111,27.9115702 78.7111111,28.2115702 C77.4111111,28.6115702 76.1111111,29.4115702 75.7111111,29.5115702 C74.9111111,29.6115702 72.5111111,31.0115702 71.6111111,31.8115702 C70.8111111,32.5115702 66.2111111,37.0115702 66.0111111,37.2115702 C65.8111111,37.4115702 60.2111111,42.9115702 59.5111111,44.6115702"/>
    <path stroke="#414142" stroke-linecap="round" stroke-width=".76" d="M77.4111111,28.9115702 C77.4111111,28.9115702 78.2111111,29.1115702 78.1111111,32.1115702 C78.1111111,33.1115702 78.2111111,35.1115702 77.5111111,37.2115702 M74.9111111,29.7115702 C74.9111111,29.7115702 75.3111111,29.8115702 75.4111111,30.2115702 C75.5111111,30.6115702 76.5111111,32.8115702 75.3111111,38.5115702 M72.2111111,31.4115702 C72.2111111,31.4115702 72.8111111,31.2115702 72.9111111,32.2115702 C72.9111111,33.2115702 72.3111111,38.3115702 71.6111111,40.0115702 M77.5111111,28.8115702 C77.5111111,28.8115702 77.6111111,28.3115702 76.9111111,27.8115702 C76.2111111,27.3115702 73.8111111,26.1115702 72.4111111,26.0115702 M75.2111111,29.6115702 C75.2111111,29.6115702 74.9111111,28.9115702 74.4111111,28.7115702 C74.0111111,28.5115702 72.2111111,27.6115702 71.9111111,27.5115702 C71.6111111,27.5115702 70.0111111,27.2115702 69.5111111,27.5115702 M72.2111111,31.2115702 C72.2111111,31.2115702 71.7111111,30.7115702 71.1111111,30.4115702 C70.6111111,30.1115702 69.7111111,29.9115702 69.1111111,29.8115702 C68.5111111,29.7115702 67.1111111,29.9115702 66.6111111,30.1115702 M68.7111111,34.4115702 C68.7111111,34.4115702 68.4111111,34.4115702 68.1111111,34.2115702 C67.8111111,34.0115702 66.3111111,33.3115702 65.5111111,33.5115702 C64.8111111,33.7115702 63.3111111,34.4115702 63.1111111,34.6115702 M66.2111111,36.8115702 C66.2111111,36.8115702 65.2111111,37.1115702 64.7111111,37.0115702 C64.2111111,36.9115702 62.4111111,36.6115702 61.9111111,37.5115702 M65.7111111,37.5115702 C65.7111111,37.5115702 65.3111111,39.0115702 65.3111111,39.4115702 C65.3111111,39.8115702 64.2111111,42.4115702 63.4111111,43.4115702 M69.3111111,33.9115702 C69.3111111,33.9115702 69.0111111,34.8115702 69.0111111,35.2115702 C69.0111111,35.6115702 69.0111111,39.3115702 67.9111111,41.0115702 C67.9111111,41.0115702 66.8111111,43.0115702 66.6111111,43.3115702 M78.5111111,39.2115702 C78.5111111,39.2115702 78.9111111,39.8115702 78.9111111,40.6115702 C78.9111111,41.4115702 78.7111111,43.4115702 78.5111111,43.8115702 M79.5111111,37.2115702 C79.5111111,37.2115702 79.7111111,37.1115702 79.8111111,37.4115702 C79.9111111,37.7115702 80.2111111,39.0115702 80.6111111,39.6115702 C80.9111111,40.3115702 81.4111111,43.2115702 81.0111111,44.1115702 M80.5111111,33.1115702 C80.5111111,33.1115702 80.8111111,34.0115702 81.1111111,34.3115702 C81.4111111,34.6115702 82.3111111,35.8115702 82.4111111,36.5115702 C82.5111111,37.2115702 83.0111111,38.9115702 82.8111111,40.2115702 M71.2111111,24.0115702 C71.2111111,24.0115702 70.1111111,23.3115702 70.0111111,23.0115702 C69.9111111,22.6115702 69.1111111,22.2115702 68.9111111,22.4115702 M73.4111111,24.1115702 C73.4111111,24.1115702 72.7111111,23.5115702 72.5111111,23.1115702 C72.3111111,22.7115702 71.7111111,21.6115702 71.0111111,21.7115702"/>
    <path fill="#FFF" stroke="#414142" stroke-width=".76" d="M85.2111111,37.5115702 C85.2111111,37.5115702 85.7111111,37.1115702 85.8111111,36.7115702 C85.9111111,36.3115702 86.1111111,34.0115702 86.0111111,34.7115702 C85.8111111,35.5115702 85.3111111,37.1115702 85.2111111,37.5115702 L85.2111111,37.5115702 Z"/>
    <path fill="#AFCE3A" stroke="#414142" stroke-linecap="round" stroke-width=".717" d="M106.711111,26.8115702 C106.711111,26.8115702 106.111111,29.0115702 106.411111,30.4115702 C106.711111,31.8115702 107.211111,32.6115702 107.211111,32.6115702 L107.411111,32.2115702 C107.411111,32.2115702 108.111111,34.0115702 108.711111,34.5115702 C109.311111,34.9115702 109.911111,35.2115702 110.211111,35.8115702 C110.511111,36.4115702 111.011111,36.7115702 111.011111,36.7115702 L111.111111,36.3115702 C111.111111,36.3115702 112.211111,37.8115702 112.511111,37.8115702 L112.511111,37.3115702 C112.511111,37.3115702 113.311111,37.8115702 113.911111,37.8115702 C114.511111,37.8115702 115.211111,37.5115702 115.911111,37.7115702 L115.611111,37.3115702 C115.611111,37.3115702 116.611111,37.1115702 117.011111,37.5115702 C117.011111,37.5115702 119.011111,38.5115702 119.111111,39.0115702 C119.311111,39.5115702 120.711111,39.5115702 120.711111,39.5115702 L120.511111,39.0115702 C120.511111,39.0115702 121.911111,39.5115702 122.311111,39.9115702 C122.611111,40.4115702 123.411111,39.9115702 123.711111,40.6115702 L123.611111,40.2115702 C123.611111,40.2115702 125.411111,41.1115702 125.411111,42.3115702 C125.411111,43.5115702 125.511111,39.7115702 125.211111,39.1115702 C124.911111,38.5115702 124.711111,37.1115702 124.911111,36.9115702 C125.111111,36.6115702 125.211111,35.2115702 125.111111,34.8115702 C125.011111,34.4115702 124.611111,33.2115702 124.811111,33.1115702 C125.011111,33.0115702 124.911111,32.3115702 124.711111,32.1115702 C124.511111,31.8115702 124.111111,31.4115702 124.111111,31.0115702 C124.011111,30.6115702 124.211111,30.0115702 124.011111,29.7115702 C123.811111,29.4115702 124.511111,29.8115702 124.511111,29.8115702 L124.311111,29.0115702 L124.711111,29.2115702 C124.711111,29.2115702 124.811111,27.8115702 124.511111,27.3115702 C124.211111,26.8115702 123.611111,26.0115702 123.711111,25.7115702 C123.911111,25.3115702 123.711111,24.7115702 123.411111,24.2115702 C123.111111,23.7115702 122.511111,23.1115702 122.511111,23.1115702 L122.911111,23.1115702 C122.911111,23.1115702 122.311111,21.6115702 121.911111,21.5115702 C121.511111,21.3115702 120.811111,20.5115702 121.011111,20.5115702 C121.211111,20.5115702 120.911111,19.9115702 120.611111,19.6115702 C120.311111,19.3115702 115.411111,15.4115702 112.211111,21.1115702 C110.611111,24.0115702 109.911111,18.5115702 106.711111,26.8115702 L106.711111,26.8115702 Z"/>
    <path fill="#AFCE3A" stroke="#414142" stroke-width=".717" d="M107.711111,30.5115702 C107.711111,30.5115702 111.311111,23.3115702 111.011111,26.7115702 C110.911111,27.7115702 109.211111,29.1115702 109.811111,28.7115702 C110.411111,28.3115702 111.111111,28.0115702 111.111111,28.5115702 C111.111111,29.0115702 111.111111,30.5115702 110.911111,30.8115702 C110.711111,31.1115702 110.611111,31.5115702 110.911111,31.3115702 C111.211111,31.1115702 111.911111,31.3115702 112.011111,31.7115702 C112.011111,32.1115702 112.411111,32.9115702 112.511111,32.8115702 C112.611111,32.7115702 112.411111,31.9115702 112.411111,31.3115702 C112.411111,30.7115702 112.011111,27.8115702 112.211111,27.3115702 C112.411111,26.8115702 113.111111,25.2115702 113.411111,25.5115702 C113.711111,25.8115702 113.511111,26.9115702 113.311111,27.4115702 C113.111111,27.9115702 113.111111,28.6115702 113.211111,28.6115702 C113.411111,28.6115702 114.011111,25.4115702 114.811111,25.8115702 C115.611111,26.2115702 115.211111,27.0115702 115.111111,27.6115702 C115.011111,28.1115702 114.511111,29.4115702 114.711111,29.6115702 C114.911111,29.8115702 115.611111,26.8115702 116.011111,27.0115702 C116.411111,27.2115702 117.211111,27.4115702 117.211111,28.1115702 C117.211111,28.8115702 116.911111,30.9115702 117.111111,30.9115702 C117.311111,30.9115702 117.711111,28.2115702 117.911111,28.8115702 C118.211111,29.3115702 119.611111,30.9115702 119.611111,31.7115702 C119.611111,32.5115702 119.311111,33.5115702 119.411111,33.6115702 C119.511111,33.7115702 119.811111,31.9115702 120.011111,32.2115702 C120.211111,32.5115702 121.411111,34.3115702 121.511111,35.1115702 C121.611111,35.9115702 121.711111,36.8115702 121.911111,36.8115702 C122.111111,36.8115702 121.911111,35.1115702 122.211111,35.7115702 C122.611111,36.4115702 123.511111,37.7115702 123.611111,37.7115702 C123.711111,37.6115702 122.311111,35.1115702 122.311111,35.0115702 C122.311111,34.9115702 122.311111,34.6115702 122.711111,34.6115702 C123.211111,34.6115702 123.111111,34.4115702 122.611111,34.3115702 C122.211111,34.1115702 121.011111,32.7115702 120.811111,32.3115702 C120.611111,31.9115702 120.411111,31.7115702 120.711111,31.6115702 C121.011111,31.5115702 121.911111,31.5115702 121.611111,31.3115702 C121.311111,31.1115702 119.811111,30.9115702 119.711111,30.6115702 C119.511111,30.3115702 118.311111,28.2115702 118.311111,28.2115702 C118.311111,28.2115702 119.211111,27.7115702 119.611111,27.9115702 C120.011111,28.1115702 120.011111,27.6115702 119.511111,27.6115702 C119.011111,27.6115702 117.711111,27.4115702 117.611111,27.2115702 C117.511111,27.0115702 116.711111,26.1115702 116.511111,26.0115702 C116.311111,25.9115702 117.511111,25.5115702 117.911111,25.6115702 C118.311111,25.7115702 118.511111,25.3115702 117.911111,25.3115702 C117.311111,25.3115702 116.011111,25.3115702 115.811111,25.1115702 C115.511111,24.9115702 115.111111,24.5115702 115.411111,24.5115702 C115.711111,24.5115702 116.811111,24.0115702 117.211111,24.1115702 C117.611111,24.2115702 116.511111,23.6115702 115.911111,23.8115702 C115.311111,23.9115702 114.911111,23.9115702 114.911111,23.7115702 C114.911111,23.5115702 115.311111,23.1115702 115.611111,23.1115702 C115.911111,23.1115702 118.511111,22.9115702 118.811111,23.0115702 C119.211111,23.2115702 120.111111,23.6115702 119.911111,23.3115702 C119.711111,23.0115702 119.311111,22.7115702 118.911111,22.6115702 C118.511111,22.4115702 115.811111,21.8115702 115.611111,21.9115702 C113.711111,23.3115702 106.011111,19.2115702 107.711111,30.5115702 L107.711111,30.5115702 Z"/>
    <path stroke="#414142" stroke-linecap="round" stroke-width=".717" d="M113.611111,23.9115702 C113.611111,23.9115702 113.811111,22.8115702 116.011111,22.6115702 C118.211111,22.4115702 120.111111,23.6115702 120.511111,23.9115702 M113.411111,24.1115702 C113.411111,24.1115702 112.411111,24.3115702 112.011111,25.2115702 C111.611111,26.1115702 110.511111,28.4115702 113.211111,34.8115702"/>
    <path stroke="#414142" stroke-linecap="round" stroke-width=".717" d="M111.611111,22.1115702 C111.611111,22.1115702 112.911111,23.4115702 113.611111,23.9115702 C114.511111,24.6115702 115.311111,25.5115702 115.611111,25.7115702 C116.211111,26.0115702 117.711111,27.8115702 118.211111,28.5115702 C118.711111,29.3115702 121.411111,33.8115702 121.511111,34.0115702 C121.611111,34.2115702 124.811111,39.8115702 125.111111,41.1115702"/>
    <path stroke="#414142" stroke-linecap="round" stroke-width=".717" d="M114.511111,24.9115702 C114.511111,24.9115702 113.911111,24.8115702 113.511111,26.9115702 C113.411111,27.6115702 112.911111,28.9115702 113.111111,30.7115702 M116.211111,26.2115702 C116.211111,26.2115702 115.911111,26.1115702 115.711111,26.4115702 C115.611111,26.6115702 114.511111,27.9115702 114.411111,32.3115702 M117.911111,28.2115702 C117.911111,28.2115702 117.511111,27.9115702 117.311111,28.5115702 C117.111111,29.2115702 116.711111,32.9115702 117.011111,34.4115702 M114.411111,24.8115702 C114.411111,24.8115702 114.411111,24.4115702 115.011111,24.3115702 C115.611111,24.2115702 117.511111,24.0115702 118.611111,24.4115702 M116.011111,26.0115702 C116.011111,26.0115702 116.411111,25.6115702 116.711111,25.6115702 C117.111111,25.6115702 118.511111,25.5115702 118.711111,25.5115702 C118.911111,25.6115702 120.211111,25.9115702 120.511111,26.3115702 M117.911111,28.1115702 C117.911111,28.1115702 118.411111,27.9115702 118.811111,27.9115702 C119.211111,27.8115702 119.911111,28.0115702 120.411111,28.1115702 C120.911111,28.2115702 121.811111,28.8115702 122.211111,29.1115702 M119.911111,31.4115702 C119.911111,31.4115702 120.111111,31.5115702 120.311111,31.4115702 C120.511111,31.4115702 121.811111,31.3115702 122.311111,31.7115702 C122.811111,32.0115702 123.811111,33.0115702 123.911111,33.2115702 M121.411111,33.8115702 C121.411111,33.8115702 122.111111,34.3115702 122.511111,34.4115702 C122.911111,34.5115702 124.211111,34.8115702 124.511111,35.6115702 M121.711111,34.5115702 L121.711111,36.0115702 C121.711111,36.3115702 122.011111,38.5115702 122.411111,39.4115702 M119.611111,30.9115702 C119.611111,30.9115702 119.711111,31.6115702 119.611111,31.9115702 C119.611111,32.2115702 119.011111,34.8115702 119.511111,36.3115702 C119.511111,36.3115702 120.011111,38.1115702 120.111111,38.3115702 M112.011111,31.8115702 C112.011111,31.8115702 111.611111,32.1115702 111.511111,32.7115702 C111.411111,33.3115702 111.211111,34.8115702 111.311111,35.1115702 M111.611111,30.1115702 C111.611111,30.1115702 111.511111,30.0115702 111.411111,30.2115702 C111.311111,30.4115702 110.811111,31.2115702 110.511111,31.5115702 C110.111111,31.9115702 109.311111,33.8115702 109.511111,34.5115702 M111.511111,26.9115702 C111.511111,26.9115702 111.211111,27.5115702 110.911111,27.6115702 C110.611111,27.7115702 109.811111,28.3115702 109.611111,28.8115702 C109.411111,29.3115702 108.811111,30.3115702 108.711111,31.3115702 M119.811111,23.3115702 C119.811111,23.3115702 120.711111,23.1115702 120.911111,22.9115702 C121.111111,22.7115702 121.711111,22.6115702 121.811111,22.8115702 M118.111111,22.7115702 C118.111111,22.7115702 118.711111,22.5115702 118.911111,22.3115702 C119.111111,22.1115702 119.711111,21.5115702 120.211111,21.7115702"/>
    <path fill="#FFF" stroke="#414142" stroke-width=".717" d="M107.411111,28.5115702 C107.411111,28.5115702 107.111111,28.0115702 107.111111,27.8115702 C107.111111,27.5115702 107.311111,25.8115702 107.311111,26.4115702 C107.311111,26.9115702 107.311111,28.2115702 107.411111,28.5115702 L107.411111,28.5115702 Z"/>
    <path fill="#A5CD39" stroke="#414142" stroke-linecap="round" stroke-width=".717" d="M132.411111,29.2115702 C132.411111,29.2115702 131.811111,28.9115702 131.111111,28.1115702 C130.411111,27.4115702 130.011111,25.8115702 130.011111,25.8115702 C128.911111,19.6115702 131.311111,22.7115702 131.211111,20.5115702 C131.011111,15.9115702 135.411111,16.6115702 135.711111,16.6115702 C136.311111,16.7115702 136.511111,17.3115702 137.211111,17.2115702 C137.411111,17.2115702 138.011111,17.4115702 138.211111,17.6115702 C138.511111,17.9115702 138.211111,17.7115702 138.911111,18.2115702 C139.711111,18.7115702 137.511111,19.4115702 137.611111,20.2115702 C137.611111,20.5115702 140.511111,19.6115702 140.811111,19.8115702 C141.111111,20.0115702 141.611111,20.9115702 141.611111,20.9115702 L141.211111,20.9115702 L141.611111,21.3115702 C141.611111,21.3115702 138.511111,22.2115702 138.611111,22.5115702 C142.211111,33.6115702 136.911111,25.8115702 136.711111,26.0115702 C136.311111,26.3115702 137.211111,30.0115702 137.211111,30.0115702 C137.711111,30.8115702 136.011111,30.0115702 136.011111,29.9115702 C136.011111,29.9115702 135.711111,30.2115702 135.311111,29.9115702 C134.911111,29.6115702 134.411111,29.7115702 133.911111,29.7115702 C133.411111,29.7115702 132.311111,28.8115702 132.311111,28.8115702 L132.411111,29.2115702 L132.411111,29.2115702 Z"/>
    <path stroke="#414142" stroke-linecap="round" stroke-width=".5" d="M132.311111,21.4115702 C132.311111,21.4115702 132.111111,20.6115702 133.311111,19.7115702 C134.511111,18.8115702 136.111111,18.8115702 136.511111,18.9115702 M132.211111,21.6115702 C132.211111,21.6115702 131.611111,22.1115702 131.711111,22.8115702 C131.811111,23.5115702 131.911111,25.3115702 135.911111,28.2115702"/>
    <path stroke="#414142" stroke-linecap="round" stroke-width=".792" d="M114.511111,17.3115702 C114.511111,17.3115702 131.711111,21.3115702 132.311111,21.4115702 C133.111111,21.5115702 133.911111,21.8115702 134.111111,21.8115702 C134.611111,21.8115702 136.111111,22.3115702 136.711111,22.6115702"/>
    <path stroke="#414142" stroke-linecap="round" stroke-width=".5" d="M133.111111,21.7115702 C133.111111,21.7115702 132.711111,21.9115702 133.211111,23.3115702 C133.411111,23.8115702 133.611111,24.7115702 134.311111,25.7115702 M134.611111,21.9115702 C134.611111,21.9115702 134.411111,22.0115702 134.411111,22.2115702 C134.411111,22.4115702 134.211111,23.5115702 135.711111,26.2115702 M136.411111,22.5115702 C136.411111,22.5115702 136.011111,22.5115702 136.111111,22.9115702 C136.211111,23.4115702 137.311111,25.8115702 138.011111,26.5115702 M133.011111,21.6115702 C133.011111,21.6115702 132.811111,21.4115702 133.211111,21.1115702 C133.511111,20.8115702 134.611111,20.0115702 135.411111,19.9115702 M134.411111,21.8115702 C134.411111,21.8115702 134.511111,21.4115702 134.711111,21.3115702 C134.911111,21.2115702 135.711111,20.6115702 135.911111,20.5115702 C136.011111,20.5115702 136.911111,20.2115702 137.211111,20.3115702 M136.311111,22.4115702 C136.311111,22.4115702 136.511111,22.1115702 136.811111,21.9115702 C137.011111,21.7115702 137.511111,21.5115702 137.811111,21.4115702 C138.111111,21.3115702 138.911111,21.3115702 139.211111,21.4115702 M134.111111,26.7115702 C134.111111,26.7115702 134.011111,27.0115702 134.111111,27.4115702 C134.211111,27.8115702 134.711111,28.7115702 134.811111,28.9115702 M133.211111,25.8115702 C133.211111,25.8115702 133.111111,25.8115702 133.111111,25.9115702 C133.111111,26.1115702 133.111111,26.7115702 133.011111,27.0115702 C132.911111,27.3115702 133.111111,28.8115702 133.511111,29.2115702 M132.011111,24.0115702 C132.011111,24.0115702 132.011111,24.5115702 131.911111,24.6115702 C131.811111,24.8115702 131.511111,25.4115702 131.511111,25.8115702 C131.611111,26.2115702 131.611111,27.0115702 131.911111,27.6115702 M135.711111,18.9115702 C135.711111,18.9115702 136.211111,18.5115702 136.211111,18.3115702 C136.211111,18.1115702 136.611111,17.9115702 136.711111,17.9115702 M134.511111,19.1115702 C134.511111,19.1115702 134.811111,18.8115702 134.811111,18.6115702 C134.911111,18.4115702 135.011111,17.8115702 135.411111,17.8115702"/>
    <path stroke="#414142" stroke-linecap="round" d="M114.511111,17.3115702 C114.511111,17.3115702 126.811111,20.2115702 127.211111,20.2115702 C127.811111,20.3115702 128.411111,20.5115702 128.511111,20.5115702 C128.811111,20.5115702 129.911111,20.9115702 130.411111,21.0115702"/>
    <g transform="translate(84.811 .612)">
      <path fill="#F9E220" stroke="#231F20" stroke-width="1.046" d="M17.7,17 L18.9,15.2 C17,9.7 10.8,9.8 7.2,8.9 C5.9,8.6 5,7.6 6.4,9.1 C9.2,11.8 12.1,15.9 17.7,17 Z"/>
      <path stroke="#414142" stroke-linecap="round" stroke-width=".36" d="M2.1,21.1 C2.1,21.1 4.1,21.2 6.6,24.6"/>
      <path fill="#F9E220" stroke="#231F20" stroke-width=".925" d="M28.4,20.3 L27.7,21.1 C30.6,30.5 35.2,26.8 38.7,26.2 C35.1,25.5 35.8,21 28.4,20.3 L28.4,20.3 Z"/>
      <path fill="#F9E220" stroke="#231F20" stroke-width=".925" d="M31.2,17.3 L30.5,18.1 C33.4,27.5 38,23.8 41.5,23.2 C37.9,22.5 38.6,18 31.2,17.3 L31.2,17.3 Z"/>
      <path fill="#F9E220" stroke="#231F20" stroke-width=".829" d="M20.2,23.1 L18.7,22.8 C12.7,25.9 14,28.9 12.1,32.3 C11.3,33.8 10.6,34.2 12.5,32.5 C15.7,29.7 18.7,26.8 20.2,23.1 Z"/>
      <path fill="#F9E220" stroke="#231F20" stroke-width=".876" d="M21.1,22.9 L19.9,23 C11.7,30.7 15.1,35.7 16.1,36.4 C16.9,34 23.7,28.9 21.1,22.9 Z"/>
      <path fill="#F9E220" stroke="#231F20" stroke-width=".875" d="M23.1,22.5 L21.6,22.9 C18.5,27.7 20.6,31.2 21.3,33.8 C21.6,35.1 21.2,36.3 21.9,34.1 C22.9,30.8 24.1,26.6 23.1,22.5 L23.1,22.5 Z"/>
      <path fill="#F9E220" stroke="#231F20" stroke-width=".771" d="M31.9,15.3 L31.5,16.7 C35.8,20.6 39.4,16.9 42,15.7 C43.6,15 42.6,15.4 41.2,15.1 C38.4,14.5 35.4,13.5 31.9,15.3 L31.9,15.3 Z"/>
      <path fill="#F9E220" stroke="#231F20" stroke-width=".781" d="M30.8,17.4 L30.4,18.4 C37.8,26.5 40.8,22.5 43.8,20.8 C44.4,20.5 44.2,20.7 43.7,20.6 C41.4,20.3 38.4,16.3 30.8,17.4 Z"/>
      <path fill="#F9E220" stroke="#231F20" stroke-width=".813" d="M30.4,18.6 L29.2,19.7 C30.5,25 34.1,23.6 37.8,24.4 C38,24.4 38.2,24.5 38.4,24.5 C39.2,24.7 39.7,25.1 38.8,24.4 L38.5,24.1 C36.4,22.1 34.6,18.6 30.4,18.6 Z"/>
      <path fill="#F9E220" stroke="#231F20" stroke-width=".813" d="M26.7,21.2 L26,22 C29.8,32.5 34.4,28.7 38,28.3 C34.2,27.3 34.6,22.5 26.7,21.2 L26.7,21.2 Z"/>
      <path fill="#F9E220" stroke="#231F20" stroke-width=".85" d="M25.2,21.8 L24.2,22.4 C19.2,32.1 27.1,31.7 30.5,32.3 C29.5,29.4 31,25.7 25.2,21.8 L25.2,21.8 Z"/>
      <path fill="#F9E220" stroke="#231F20" stroke-width=".893" d="M19.9,13 L21.1,12.1 C21,11.2 19.5,9.6 17.8,7.8 C17,6.9 16.2,5.9 15.8,5 C15,3.5 15.5,3.2 15.5,5 C15.5,8.1 14.3,13.1 19.9,13 L19.9,13 Z"/>
      <path fill="#F9E220" stroke="#231F20" stroke-width=".889" d="M17.7,14.1 L19.1,13 C19.6,8.8 15.6,7.7 13.2,6.3 C11.9,5.5 11.8,4.6 12.3,6.3 C13.1,8.9 12.9,11.6 17.7,14.1 Z"/>
      <path fill="#F9E220" stroke="#231F20" stroke-width=".793" d="M27.6,11.1 C28.4,12.3 30.3,12.9 30.5,12.9 C34.8,13 36.3,8.2 38.1,6.2 C39,5.2 39,5.5 37.6,6 C34.5,6.9 30.5,7.7 27.6,11.1 Z"/>
      <path fill="#F9E220" stroke="#231F20" stroke-width=".786" d="M30.7,12.5 L31.3,14 C36.7,16.7 39.5,11.4 41.9,9.4 C43,8.5 43.2,8.8 41.6,9 C38.3,9.5 34.3,9.7 30.7,12.5 L30.7,12.5 Z"/>
      <path fill="#F9E220" stroke="#231F20" stroke-width=".808" d="M24.5,10.8 L25.8,12 C30.9,11.4 32,6.5 33.6,4.1 C34.3,3.1 34.6,3.1 33.3,3.8 C30.4,5.3 26.5,6.9 24.5,10.8 Z"/>
      <path fill="#F9E220" stroke="#231F20" stroke-width=".885" d="M23.3,11.7 L25.2,11.7 C28.3,8.2 25.5,4.4 24.6,1.7 C24.3,0.7 24.5,-0.2 24.1,1.2 C23.2,4.2 21.6,7.7 23.3,11.7 Z"/>
      <path fill="#F9E220" stroke="#231F20" stroke-width=".895" d="M20.6,12.5 L22.3,11.8 C24.5,7.5 20.1,5.4 18.6,3.2 C18.1,2.4 18.3,2.2 18.2,3.3 C18.1,6 16.8,8.6 20.6,12.5 Z"/>
      <path fill="#F9E220" stroke="#231F20" stroke-width=".871" d="M15.3,17.3 L16.3,15.9 C15.7,14.9 13.1,14.9 10.3,13.5 C8.5,12.6 5.5,12.1 4.2,11.3 C3.1,10.7 3.6,10.7 4.3,11.7 C5.8,14.1 6.6,16.8 15.3,17.3 Z"/>
      <path fill="#F9E220" stroke="#231F20" stroke-width=".824" d="M16.9,21.2 L16.3,22.1 C12.9,23.6 10.4,25.3 8.2,25.4 C3.5,25.8 3,23.1 0.9,21 C7.4,23.5 12.3,16.2 16.9,21.2 Z"/>
      <path fill="#F9E220" stroke="#231F20" stroke-width=".771" d="M15.2,19 L15.6,17.6 C9.9,14.3 3.5,19 1.5,18.5 C5.4,19.7 10.7,21.6 15.2,19 Z"/>
      <path fill="#F9E220" stroke="#231F20" stroke-width=".789" d="M17.2,22 L18.5,22.9 C15.5,29.5 9.1,29.1 5.4,30 C4.1,30.3 3.6,30.9 5,29.7 C8.3,27.1 11.5,23.3 17.2,22 Z"/>
      <path fill="#927838" stroke="#231F20" stroke-width=".896" d="M27.2,21.5 C21.6,25.3 15.7,22.4 15.3,19.9 C14.9,17.5 15.7,15.1 19.7,12.9 C23.8,10.7 27.7,10.2 29.9,11.8 C32.9,13.7 32.8,17.7 27.2,21.5 Z"/>
    </g>
  </g>
</svg>
