<?xml version="1.0" encoding="UTF-8"?>
<svg width="23px" height="24px" viewBox="0 0 23 24" version="1.1" xmlns="http://www.w3.org/2000/svg" xmlns:xlink="http://www.w3.org/1999/xlink">
    <!-- Generator: Sketch 48.1 (47250) - http://www.bohemiancoding.com/sketch -->
    <title>Group</title>
    <desc>Created with Sketch.</desc>
    <defs></defs>
    <g id="1920px" stroke="none" stroke-width="1" fill="none" fill-rule="evenodd" transform="translate(-1615.000000, -91.000000)">
        <g id="Group" transform="translate(1615.000000, 91.000000)" fill="#000000" fill-rule="nonzero">
            <path d="M9.03493776,0.0991683333 C4.06455562,0.0991683333 -9.74761905e-06,4.16368726 -9.74761905e-06,9.13410774 C-9.74761905e-06,14.1045036 4.06455562,18.1690417 9.03493776,18.1690417 C10.9292342,18.1690417 12.6864342,17.5750119 14.1427449,16.5690905 L20.1917175,22.6180631 C20.8331985,23.2595167 21.8773985,23.259544 22.5188794,22.6180631 C23.1603864,21.9765548 23.1603864,20.9409524 22.5188794,20.299444 L16.4699068,14.2504714 C17.4763211,12.793969 18.069858,11.0289381 18.069858,9.13410774 C18.069858,4.16368726 14.0052925,0.0991683333 9.03493776,0.0991683333 Z M9.03493776,3.3846006 C12.2296925,3.3846006 14.7844449,5.9393256 14.7844449,9.13410774 C14.7844449,12.3288488 12.2296925,14.8836286 9.03493776,14.8836286 C5.840183,14.8836286 3.28543062,12.3288488 3.28543062,9.13410774 C3.28543062,5.9393256 5.840183,3.3846006 9.03493776,3.3846006 Z" id="Shape"></path>
        </g>
    </g>
</svg>